<?xml version="1.0" encoding="UTF-8" standalone="no"?>
<!DOCTYPE svg PUBLIC "-//W3C//DTD SVG 1.1//EN"
 "http://www.w3.org/Graphics/SVG/1.1/DTD/svg11.dtd">
<!-- Generated by graphviz version 6.0.1 (0)
 -->
<!-- Title: snakemake_dag Pages: 1 -->
<svg width="479pt" height="188pt"
 viewBox="0.00 0.00 479.00 188.00" xmlns="http://www.w3.org/2000/svg" xmlns:xlink="http://www.w3.org/1999/xlink">
<g id="graph0" class="graph" transform="scale(1 1) rotate(0) translate(4 184)">
<title>snakemake_dag</title>
<polygon fill="white" stroke="none" points="-4,4 -4,-184 475,-184 475,4 -4,4"/>
<!-- 0 -->
<g id="node1" class="node">
<title>0</title>
<path fill="none" stroke="#56d89a" stroke-width="2" d="M238,-36C238,-36 176,-36 176,-36 170,-36 164,-30 164,-24 164,-24 164,-12 164,-12 164,-6 170,0 176,0 176,0 238,0 238,0 244,0 250,-6 250,-12 250,-12 250,-24 250,-24 250,-30 244,-36 238,-36"/>
<text text-anchor="middle" x="207" y="-15.5" font-family="sans" font-size="10.00">targeted_results</text>
</g>
<!-- 1 -->
<g id="node2" class="node">
<title>1</title>
<path fill="none" stroke="#d88556" stroke-width="2" d="M42,-108C42,-108 12,-108 12,-108 6,-108 0,-102 0,-96 0,-96 0,-84 0,-84 0,-78 6,-72 12,-72 12,-72 42,-72 42,-72 48,-72 54,-78 54,-84 54,-84 54,-96 54,-96 54,-102 48,-108 42,-108"/>
<text text-anchor="middle" x="27" y="-87.5" font-family="sans" font-size="10.00">lineplot</text>
</g>
<!-- 1&#45;&gt;0 -->
<g id="edge1" class="edge">
<title>1&#45;&gt;0</title>
<path fill="none" stroke="grey" stroke-width="2" d="M54.01,-75.93C57.03,-74.57 60.07,-73.23 63,-72 92.76,-59.53 126.59,-46.99 153.99,-37.25"/>
<polygon fill="grey" stroke="grey" stroke-width="2" points="155.51,-40.42 163.77,-33.79 153.17,-33.82 155.51,-40.42"/>
</g>
<!-- 2 -->
<g id="node3" class="node">
<title>2</title>
<path fill="none" stroke="#9fd856" stroke-width="2" d="M202,-180C202,-180 140,-180 140,-180 134,-180 128,-174 128,-168 128,-168 128,-156 128,-156 128,-150 134,-144 140,-144 140,-144 202,-144 202,-144 208,-144 214,-150 214,-156 214,-156 214,-168 214,-168 214,-174 208,-180 202,-180"/>
<text text-anchor="middle" x="171" y="-159.5" font-family="sans" font-size="10.00">processed_data</text>
</g>
<!-- 2&#45;&gt;1 -->
<g id="edge7" class="edge">
<title>2&#45;&gt;1</title>
<path fill="none" stroke="grey" stroke-width="2" d="M135.77,-143.88C113.77,-133.18 85.51,-119.44 63.3,-108.65"/>
<polygon fill="grey" stroke="grey" stroke-width="2" points="64.72,-105.44 54.2,-104.22 61.66,-111.74 64.72,-105.44"/>
</g>
<!-- 3 -->
<g id="node4" class="node">
<title>3</title>
<path fill="none" stroke="#d8b456" stroke-width="2" d="M114,-108C114,-108 84,-108 84,-108 78,-108 72,-102 72,-96 72,-96 72,-84 72,-84 72,-78 78,-72 84,-72 84,-72 114,-72 114,-72 120,-72 126,-78 126,-84 126,-84 126,-96 126,-96 126,-102 120,-108 114,-108"/>
<text text-anchor="middle" x="99" y="-87.5" font-family="sans" font-size="10.00">jitter</text>
</g>
<!-- 2&#45;&gt;3 -->
<g id="edge8" class="edge">
<title>2&#45;&gt;3</title>
<path fill="none" stroke="grey" stroke-width="2" d="M153.2,-143.7C144.4,-135.14 133.62,-124.66 124,-115.3"/>
<polygon fill="grey" stroke="grey" stroke-width="2" points="126.2,-112.57 116.59,-108.1 121.32,-117.58 126.2,-112.57"/>
</g>
<!-- 4 -->
<g id="node5" class="node">
<title>4</title>
<path fill="none" stroke="#56d8c9" stroke-width="2" d="M186,-108C186,-108 156,-108 156,-108 150,-108 144,-102 144,-96 144,-96 144,-84 144,-84 144,-78 150,-72 156,-72 156,-72 186,-72 186,-72 192,-72 198,-78 198,-84 198,-84 198,-96 198,-96 198,-102 192,-108 186,-108"/>
<text text-anchor="middle" x="171" y="-87.5" font-family="sans" font-size="10.00">pcoa</text>
</g>
<!-- 2&#45;&gt;4 -->
<g id="edge9" class="edge">
<title>2&#45;&gt;4</title>
<path fill="none" stroke="grey" stroke-width="2" d="M171,-143.7C171,-135.98 171,-126.71 171,-118.11"/>
<polygon fill="grey" stroke="grey" stroke-width="2" points="174.5,-118.1 171,-108.1 167.5,-118.1 174.5,-118.1"/>
</g>
<!-- 5 -->
<g id="node6" class="node">
<title>5</title>
<path fill="none" stroke="#ced856" stroke-width="2" d="M258,-108C258,-108 228,-108 228,-108 222,-108 216,-102 216,-96 216,-96 216,-84 216,-84 216,-78 222,-72 228,-72 228,-72 258,-72 258,-72 264,-72 270,-78 270,-84 270,-84 270,-96 270,-96 270,-102 264,-108 258,-108"/>
<text text-anchor="middle" x="243" y="-87.5" font-family="sans" font-size="10.00">heatmap</text>
</g>
<!-- 2&#45;&gt;5 -->
<g id="edge10" class="edge">
<title>2&#45;&gt;5</title>
<path fill="none" stroke="grey" stroke-width="2" d="M188.8,-143.7C197.6,-135.14 208.38,-124.66 218,-115.3"/>
<polygon fill="grey" stroke="grey" stroke-width="2" points="220.68,-117.58 225.41,-108.1 215.8,-112.57 220.68,-117.58"/>
</g>
<!-- 6 -->
<g id="node7" class="node">
<title>6</title>
<path fill="none" stroke="#5682d8" stroke-width="2" d="M330,-108C330,-108 300,-108 300,-108 294,-108 288,-102 288,-96 288,-96 288,-84 288,-84 288,-78 294,-72 300,-72 300,-72 330,-72 330,-72 336,-72 342,-78 342,-84 342,-84 342,-96 342,-96 342,-102 336,-108 330,-108"/>
<text text-anchor="middle" x="315" y="-87.5" font-family="sans" font-size="10.00">barplot</text>
</g>
<!-- 2&#45;&gt;6 -->
<g id="edge11" class="edge">
<title>2&#45;&gt;6</title>
<path fill="none" stroke="grey" stroke-width="2" d="M206.23,-143.88C228.23,-133.18 256.49,-119.44 278.7,-108.65"/>
<polygon fill="grey" stroke="grey" stroke-width="2" points="280.34,-111.74 287.8,-104.22 277.28,-105.44 280.34,-111.74"/>
</g>
<!-- 3&#45;&gt;0 -->
<g id="edge5" class="edge">
<title>3&#45;&gt;0</title>
<path fill="none" stroke="grey" stroke-width="2" d="M125.42,-71.88C139.41,-62.81 156.78,-51.55 171.89,-41.76"/>
<polygon fill="grey" stroke="grey" stroke-width="2" points="173.99,-44.57 180.48,-36.19 170.18,-38.69 173.99,-44.57"/>
</g>
<!-- 4&#45;&gt;0 -->
<g id="edge4" class="edge">
<title>4&#45;&gt;0</title>
<path fill="none" stroke="grey" stroke-width="2" d="M179.9,-71.7C184,-63.73 188.95,-54.1 193.49,-45.26"/>
<polygon fill="grey" stroke="grey" stroke-width="2" points="196.74,-46.6 198.2,-36.1 190.52,-43.4 196.74,-46.6"/>
</g>
<!-- 5&#45;&gt;0 -->
<g id="edge2" class="edge">
<title>5&#45;&gt;0</title>
<path fill="none" stroke="grey" stroke-width="2" d="M234.1,-71.7C230,-63.73 225.05,-54.1 220.51,-45.26"/>
<polygon fill="grey" stroke="grey" stroke-width="2" points="223.48,-43.4 215.8,-36.1 217.26,-46.6 223.48,-43.4"/>
</g>
<!-- 6&#45;&gt;0 -->
<g id="edge6" class="edge">
<title>6&#45;&gt;0</title>
<path fill="none" stroke="grey" stroke-width="2" d="M288.58,-71.88C274.59,-62.81 257.22,-51.55 242.11,-41.76"/>
<polygon fill="grey" stroke="grey" stroke-width="2" points="243.82,-38.69 233.52,-36.19 240.01,-44.57 243.82,-38.69"/>
</g>
<!-- 7 -->
<g id="node8" class="node">
<title>7</title>
<path fill="none" stroke="#56d86b" stroke-width="2" d="M422,-108C422,-108 372,-108 372,-108 366,-108 360,-102 360,-96 360,-96 360,-84 360,-84 360,-78 366,-72 372,-72 372,-72 422,-72 422,-72 428,-72 434,-78 434,-84 434,-84 434,-96 434,-96 434,-102 428,-108 422,-108"/>
<text text-anchor="middle" x="397" y="-87.5" font-family="sans" font-size="10.00">github_pages</text>
</g>
<!-- 7&#45;&gt;0 -->
<g id="edge3" class="edge">
<title>7&#45;&gt;0</title>
<path fill="none" stroke="grey" stroke-width="2" d="M359.84,-75.26C356.85,-74.16 353.88,-73.06 351,-72 320.84,-60.88 287.11,-48.46 259.89,-38.45"/>
<polygon fill="grey" stroke="grey" stroke-width="2" points="260.76,-35.04 250.17,-34.87 258.35,-41.61 260.76,-35.04"/>
</g>
<!-- 8 -->
<g id="node9" class="node">
<title>8</title>
<path fill="none" stroke="#70d856" stroke-width="2" d="M373,-180C373,-180 341,-180 341,-180 335,-180 329,-174 329,-168 329,-168 329,-156 329,-156 329,-150 335,-144 341,-144 341,-144 373,-144 373,-144 379,-144 385,-150 385,-156 385,-156 385,-168 385,-168 385,-174 379,-180 373,-180"/>
<text text-anchor="middle" x="357" y="-159.5" font-family="sans" font-size="10.00">rulegraph</text>
</g>
<!-- 8&#45;&gt;7 -->
<g id="edge13" class="edge">
<title>8&#45;&gt;7</title>
<path fill="none" stroke="grey" stroke-width="2" d="M366.89,-143.7C371.49,-135.64 377.06,-125.89 382.15,-116.98"/>
<polygon fill="grey" stroke="grey" stroke-width="2" points="385.3,-118.52 387.23,-108.1 379.23,-115.05 385.3,-118.52"/>
</g>
<!-- 9 -->
<g id="node10" class="node">
<title>9</title>
<path fill="none" stroke="#56b1d8" stroke-width="2" d="M459,-180C459,-180 415,-180 415,-180 409,-180 403,-174 403,-168 403,-168 403,-156 403,-156 403,-150 409,-144 415,-144 415,-144 459,-144 459,-144 465,-144 471,-150 471,-156 471,-156 471,-168 471,-168 471,-174 465,-180 459,-180"/>
<text text-anchor="middle" x="437" y="-159.5" font-family="sans" font-size="10.00">project_tree</text>
</g>
<!-- 9&#45;&gt;7 -->
<g id="edge12" class="edge">
<title>9&#45;&gt;7</title>
<path fill="none" stroke="grey" stroke-width="2" d="M427.11,-143.7C422.51,-135.64 416.94,-125.89 411.85,-116.98"/>
<polygon fill="grey" stroke="grey" stroke-width="2" points="414.77,-115.05 406.77,-108.1 408.7,-118.52 414.77,-115.05"/>
</g>
</g>
</svg>
