<?xml version="1.0" encoding="UTF-8" standalone="no"?>
<!DOCTYPE svg PUBLIC "-//W3C//DTD SVG 1.1//EN"
 "http://www.w3.org/Graphics/SVG/1.1/DTD/svg11.dtd">
<!-- Generated by graphviz version 6.0.1 (0)
 -->
<!-- Title: snakemake_dag Pages: 1 -->
<svg width="870pt" height="188pt"
 viewBox="0.00 0.00 869.50 188.00" xmlns="http://www.w3.org/2000/svg" xmlns:xlink="http://www.w3.org/1999/xlink">
<g id="graph0" class="graph" transform="scale(1 1) rotate(0) translate(4 184)">
<title>snakemake_dag</title>
<polygon fill="white" stroke="none" points="-4,4 -4,-184 865.5,-184 865.5,4 -4,4"/>
<!-- 0 -->
<g id="node1" class="node">
<title>0</title>
<path fill="none" stroke="#b6d856" stroke-width="2" d="M327.5,-36C327.5,-36 297.5,-36 297.5,-36 291.5,-36 285.5,-30 285.5,-24 285.5,-24 285.5,-12 285.5,-12 285.5,-6 291.5,0 297.5,0 297.5,0 327.5,0 327.5,0 333.5,0 339.5,-6 339.5,-12 339.5,-12 339.5,-24 339.5,-24 339.5,-30 333.5,-36 327.5,-36"/>
<text text-anchor="middle" x="312.5" y="-15.5" font-family="sans" font-size="10.00">all</text>
</g>
<!-- 1 -->
<g id="node2" class="node">
<title>1</title>
<path fill="none" stroke="#56d8b9" stroke-width="2" d="M67,-108C67,-108 12,-108 12,-108 6,-108 0,-102 0,-96 0,-96 0,-84 0,-84 0,-78 6,-72 12,-72 12,-72 67,-72 67,-72 73,-72 79,-78 79,-84 79,-84 79,-96 79,-96 79,-102 73,-108 67,-108"/>
<text text-anchor="middle" x="39.5" y="-87.5" font-family="sans" font-size="10.00">line_point_plot</text>
</g>
<!-- 1&#45;&gt;0 -->
<g id="edge4" class="edge">
<title>1&#45;&gt;0</title>
<path fill="none" stroke="grey" stroke-width="2" d="M79.24,-74.83C82.36,-73.84 85.47,-72.88 88.5,-72 153.65,-53.05 230.9,-35.92 275.55,-26.54"/>
<polygon fill="grey" stroke="grey" stroke-width="2" points="276.3,-29.96 285.37,-24.49 274.87,-23.1 276.3,-29.96"/>
</g>
<!-- 2 -->
<g id="node3" class="node">
<title>2</title>
<path fill="none" stroke="#d87d56" stroke-width="2" d="M251,-180C251,-180 178,-180 178,-180 172,-180 166,-174 166,-168 166,-168 166,-156 166,-156 166,-150 172,-144 178,-144 178,-144 251,-144 251,-144 257,-144 263,-150 263,-156 263,-156 263,-168 263,-168 263,-174 257,-180 251,-180"/>
<text text-anchor="middle" x="214.5" y="-159.5" font-family="sans" font-size="10.00">import_demo_data</text>
</g>
<!-- 2&#45;&gt;1 -->
<g id="edge8" class="edge">
<title>2&#45;&gt;1</title>
<path fill="none" stroke="grey" stroke-width="2" d="M171.69,-143.88C146.55,-133.82 114.67,-121.07 88.52,-110.61"/>
<polygon fill="grey" stroke="grey" stroke-width="2" points="89.76,-107.33 79.17,-106.87 87.16,-113.83 89.76,-107.33"/>
</g>
<!-- 3 -->
<g id="node4" class="node">
<title>3</title>
<path fill="none" stroke="#68d856" stroke-width="2" d="M141.5,-108C141.5,-108 109.5,-108 109.5,-108 103.5,-108 97.5,-102 97.5,-96 97.5,-96 97.5,-84 97.5,-84 97.5,-78 103.5,-72 109.5,-72 109.5,-72 141.5,-72 141.5,-72 147.5,-72 153.5,-78 153.5,-84 153.5,-84 153.5,-96 153.5,-96 153.5,-102 147.5,-108 141.5,-108"/>
<text text-anchor="middle" x="125.5" y="-87.5" font-family="sans" font-size="10.00">jitter_plot</text>
</g>
<!-- 2&#45;&gt;3 -->
<g id="edge9" class="edge">
<title>2&#45;&gt;3</title>
<path fill="none" stroke="grey" stroke-width="2" d="M192.5,-143.7C181.29,-134.88 167.5,-124.03 155.35,-114.47"/>
<polygon fill="grey" stroke="grey" stroke-width="2" points="157.27,-111.54 147.25,-108.1 152.94,-117.04 157.27,-111.54"/>
</g>
<!-- 4 -->
<g id="node5" class="node">
<title>4</title>
<path fill="none" stroke="#567bd8" stroke-width="2" d="M245,-108C245,-108 184,-108 184,-108 178,-108 172,-102 172,-96 172,-96 172,-84 172,-84 172,-78 178,-72 184,-72 184,-72 245,-72 245,-72 251,-72 257,-78 257,-84 257,-84 257,-96 257,-96 257,-102 251,-108 245,-108"/>
<text text-anchor="middle" x="214.5" y="-87.5" font-family="sans" font-size="10.00">pcoa_ordination</text>
</g>
<!-- 2&#45;&gt;4 -->
<g id="edge10" class="edge">
<title>2&#45;&gt;4</title>
<path fill="none" stroke="grey" stroke-width="2" d="M214.5,-143.7C214.5,-135.98 214.5,-126.71 214.5,-118.11"/>
<polygon fill="grey" stroke="grey" stroke-width="2" points="218,-118.1 214.5,-108.1 211,-118.1 218,-118.1"/>
</g>
<!-- 5 -->
<g id="node6" class="node">
<title>5</title>
<path fill="none" stroke="#8fd856" stroke-width="2" d="M338,-108C338,-108 287,-108 287,-108 281,-108 275,-102 275,-96 275,-96 275,-84 275,-84 275,-78 281,-72 287,-72 287,-72 338,-72 338,-72 344,-72 350,-78 350,-84 350,-84 350,-96 350,-96 350,-102 344,-108 338,-108"/>
<text text-anchor="middle" x="312.5" y="-87.5" font-family="sans" font-size="10.00">heatmap_plot</text>
</g>
<!-- 2&#45;&gt;5 -->
<g id="edge11" class="edge">
<title>2&#45;&gt;5</title>
<path fill="none" stroke="grey" stroke-width="2" d="M238.47,-143.88C251.05,-134.89 266.63,-123.76 280.25,-114.03"/>
<polygon fill="grey" stroke="grey" stroke-width="2" points="282.33,-116.85 288.43,-108.19 278.26,-111.15 282.33,-116.85"/>
</g>
<!-- 6 -->
<g id="node7" class="node">
<title>6</title>
<path fill="none" stroke="#d8cb56" stroke-width="2" d="M426.5,-108C426.5,-108 380.5,-108 380.5,-108 374.5,-108 368.5,-102 368.5,-96 368.5,-96 368.5,-84 368.5,-84 368.5,-78 374.5,-72 380.5,-72 380.5,-72 426.5,-72 426.5,-72 432.5,-72 438.5,-78 438.5,-84 438.5,-84 438.5,-96 438.5,-96 438.5,-102 432.5,-108 426.5,-108"/>
<text text-anchor="middle" x="403.5" y="-87.5" font-family="sans" font-size="10.00">taxa_barplot</text>
</g>
<!-- 2&#45;&gt;6 -->
<g id="edge12" class="edge">
<title>2&#45;&gt;6</title>
<path fill="none" stroke="grey" stroke-width="2" d="M261.23,-143.91C289.42,-133.58 326.05,-120.1 358.5,-108 358.6,-107.96 358.7,-107.93 358.79,-107.89"/>
<polygon fill="grey" stroke="grey" stroke-width="2" points="360,-111.18 368.14,-104.39 357.55,-104.62 360,-111.18"/>
</g>
<!-- 3&#45;&gt;0 -->
<g id="edge3" class="edge">
<title>3&#45;&gt;0</title>
<path fill="none" stroke="grey" stroke-width="2" d="M153.67,-75.74C156.63,-74.44 159.62,-73.17 162.5,-72 200.56,-56.57 245.01,-41.18 275.59,-31"/>
<polygon fill="grey" stroke="grey" stroke-width="2" points="277.01,-34.21 285.4,-27.75 274.8,-27.57 277.01,-34.21"/>
</g>
<!-- 4&#45;&gt;0 -->
<g id="edge7" class="edge">
<title>4&#45;&gt;0</title>
<path fill="none" stroke="grey" stroke-width="2" d="M238.47,-71.88C251.05,-62.89 266.63,-51.76 280.25,-42.03"/>
<polygon fill="grey" stroke="grey" stroke-width="2" points="282.33,-44.85 288.43,-36.19 278.26,-39.15 282.33,-44.85"/>
</g>
<!-- 5&#45;&gt;0 -->
<g id="edge2" class="edge">
<title>5&#45;&gt;0</title>
<path fill="none" stroke="grey" stroke-width="2" d="M312.5,-71.7C312.5,-63.98 312.5,-54.71 312.5,-46.11"/>
<polygon fill="grey" stroke="grey" stroke-width="2" points="316,-46.1 312.5,-36.1 309,-46.1 316,-46.1"/>
</g>
<!-- 6&#45;&gt;0 -->
<g id="edge1" class="edge">
<title>6&#45;&gt;0</title>
<path fill="none" stroke="grey" stroke-width="2" d="M381.01,-71.7C369.54,-62.88 355.44,-52.03 343.02,-42.47"/>
<polygon fill="grey" stroke="grey" stroke-width="2" points="344.8,-39.43 334.74,-36.1 340.53,-44.98 344.8,-39.43"/>
</g>
<!-- 7 -->
<g id="node8" class="node">
<title>7</title>
<path fill="none" stroke="#56a9d8" stroke-width="2" d="M592,-108C592,-108 469,-108 469,-108 463,-108 457,-102 457,-96 457,-96 457,-84 457,-84 457,-78 463,-72 469,-72 469,-72 592,-72 592,-72 598,-72 604,-78 604,-84 604,-84 604,-96 604,-96 604,-102 598,-108 592,-108"/>
<text text-anchor="middle" x="530.5" y="-87.5" font-family="sans" font-size="10.00">snakemake_interactive_report</text>
</g>
<!-- 7&#45;&gt;0 -->
<g id="edge6" class="edge">
<title>7&#45;&gt;0</title>
<path fill="none" stroke="grey" stroke-width="2" d="M477.45,-71.97C437.76,-59.22 384.49,-42.12 349.36,-30.84"/>
<polygon fill="grey" stroke="grey" stroke-width="2" points="350.11,-27.4 339.52,-27.68 347.97,-34.07 350.11,-27.4"/>
</g>
<!-- 8 -->
<g id="node9" class="node">
<title>8</title>
<path fill="none" stroke="#56d0d8" stroke-width="2" d="M732.5,-108C732.5,-108 634.5,-108 634.5,-108 628.5,-108 622.5,-102 622.5,-96 622.5,-96 622.5,-84 622.5,-84 622.5,-78 628.5,-72 634.5,-72 634.5,-72 732.5,-72 732.5,-72 738.5,-72 744.5,-78 744.5,-84 744.5,-84 744.5,-96 744.5,-96 744.5,-102 738.5,-108 732.5,-108"/>
<text text-anchor="middle" x="683.5" y="-87.5" font-family="sans" font-size="10.00">deploy_to_github_pages</text>
</g>
<!-- 8&#45;&gt;0 -->
<g id="edge5" class="edge">
<title>8&#45;&gt;0</title>
<path fill="none" stroke="grey" stroke-width="2" d="M622.47,-73.93C619.44,-73.26 616.44,-72.61 613.5,-72 518.89,-52.2 406.52,-33.74 349.57,-24.74"/>
<polygon fill="grey" stroke="grey" stroke-width="2" points="350.02,-21.27 339.59,-23.17 348.93,-28.19 350.02,-21.27"/>
</g>
<!-- 9 -->
<g id="node10" class="node">
<title>9</title>
<path fill="none" stroke="#56d892" stroke-width="2" d="M619.5,-180C619.5,-180 549.5,-180 549.5,-180 543.5,-180 537.5,-174 537.5,-168 537.5,-168 537.5,-156 537.5,-156 537.5,-150 543.5,-144 549.5,-144 549.5,-144 619.5,-144 619.5,-144 625.5,-144 631.5,-150 631.5,-156 631.5,-156 631.5,-168 631.5,-168 631.5,-174 625.5,-180 619.5,-180"/>
<text text-anchor="middle" x="584.5" y="-159.5" font-family="sans" font-size="10.00">get_dot_rulegraph</text>
</g>
<!-- 9&#45;&gt;8 -->
<g id="edge15" class="edge">
<title>9&#45;&gt;8</title>
<path fill="none" stroke="grey" stroke-width="2" d="M608.72,-143.88C621.42,-134.89 637.16,-123.76 650.92,-114.03"/>
<polygon fill="grey" stroke="grey" stroke-width="2" points="653.04,-116.82 659.19,-108.19 649,-111.11 653.04,-116.82"/>
</g>
<!-- 10 -->
<g id="node11" class="node">
<title>10</title>
<path fill="none" stroke="#56d86b" stroke-width="2" d="M705.5,-180C705.5,-180 661.5,-180 661.5,-180 655.5,-180 649.5,-174 649.5,-168 649.5,-168 649.5,-156 649.5,-156 649.5,-150 655.5,-144 661.5,-144 661.5,-144 705.5,-144 705.5,-144 711.5,-144 717.5,-150 717.5,-156 717.5,-156 717.5,-168 717.5,-168 717.5,-174 711.5,-180 705.5,-180"/>
<text text-anchor="middle" x="683.5" y="-159.5" font-family="sans" font-size="10.00">project_tree</text>
</g>
<!-- 10&#45;&gt;8 -->
<g id="edge13" class="edge">
<title>10&#45;&gt;8</title>
<path fill="none" stroke="grey" stroke-width="2" d="M683.5,-143.7C683.5,-135.98 683.5,-126.71 683.5,-118.11"/>
<polygon fill="grey" stroke="grey" stroke-width="2" points="687,-118.1 683.5,-108.1 680,-118.1 687,-118.1"/>
</g>
<!-- 11 -->
<g id="node12" class="node">
<title>11</title>
<path fill="none" stroke="#d8a456" stroke-width="2" d="M849.5,-180C849.5,-180 747.5,-180 747.5,-180 741.5,-180 735.5,-174 735.5,-168 735.5,-168 735.5,-156 735.5,-156 735.5,-150 741.5,-144 747.5,-144 747.5,-144 849.5,-144 849.5,-144 855.5,-144 861.5,-150 861.5,-156 861.5,-156 861.5,-168 861.5,-168 861.5,-174 855.5,-180 849.5,-180"/>
<text text-anchor="middle" x="798.5" y="-159.5" font-family="sans" font-size="10.00">snakemake_static_report</text>
</g>
<!-- 11&#45;&gt;8 -->
<g id="edge14" class="edge">
<title>11&#45;&gt;8</title>
<path fill="none" stroke="grey" stroke-width="2" d="M770.37,-143.88C755.33,-134.72 736.63,-123.34 720.44,-113.48"/>
<polygon fill="grey" stroke="grey" stroke-width="2" points="722.1,-110.4 711.74,-108.19 718.46,-116.38 722.1,-110.4"/>
</g>
</g>
</svg>
