<?xml version="1.0" encoding="UTF-8" standalone="no"?>
<!DOCTYPE svg PUBLIC "-//W3C//DTD SVG 1.1//EN"
 "http://www.w3.org/Graphics/SVG/1.1/DTD/svg11.dtd">
<!-- Generated by graphviz version 6.0.1 (0)
 -->
<!-- Title: snakemake_dag Pages: 1 -->
<svg width="558pt" height="260pt"
 viewBox="0.00 0.00 557.50 260.00" xmlns="http://www.w3.org/2000/svg" xmlns:xlink="http://www.w3.org/1999/xlink">
<g id="graph0" class="graph" transform="scale(1 1) rotate(0) translate(4 256)">
<title>snakemake_dag</title>
<polygon fill="white" stroke="none" points="-4,4 -4,-256 553.5,-256 553.5,4 -4,4"/>
<!-- 0 -->
<g id="node1" class="node">
<title>0</title>
<path fill="none" stroke="#d88556" stroke-width="2" d="M307,-36C307,-36 277,-36 277,-36 271,-36 265,-30 265,-24 265,-24 265,-12 265,-12 265,-6 271,0 277,0 277,0 307,0 307,0 313,0 319,-6 319,-12 319,-12 319,-24 319,-24 319,-30 313,-36 307,-36"/>
<text text-anchor="middle" x="292" y="-15.5" font-family="sans" font-size="10.00">all</text>
</g>
<!-- 1 -->
<g id="node2" class="node">
<title>1</title>
<path fill="none" stroke="#56d89a" stroke-width="2" d="M195,-108C195,-108 97,-108 97,-108 91,-108 85,-102 85,-96 85,-96 85,-84 85,-84 85,-78 91,-72 97,-72 97,-72 195,-72 195,-72 201,-72 207,-78 207,-84 207,-84 207,-96 207,-96 207,-102 201,-108 195,-108"/>
<text text-anchor="middle" x="146" y="-87.5" font-family="sans" font-size="10.00">deploy_to_github_pages</text>
</g>
<!-- 1&#45;&gt;0 -->
<g id="edge4" class="edge">
<title>1&#45;&gt;0</title>
<path fill="none" stroke="grey" stroke-width="2" d="M181.72,-71.88C204.17,-61.11 233.06,-47.26 255.64,-36.43"/>
<polygon fill="grey" stroke="grey" stroke-width="2" points="257.39,-39.48 264.89,-32 254.36,-33.16 257.39,-39.48"/>
</g>
<!-- 2 -->
<g id="node3" class="node">
<title>2</title>
<path fill="none" stroke="#9fd856" stroke-width="2" d="M82,-180C82,-180 12,-180 12,-180 6,-180 0,-174 0,-168 0,-168 0,-156 0,-156 0,-150 6,-144 12,-144 12,-144 82,-144 82,-144 88,-144 94,-150 94,-156 94,-156 94,-168 94,-168 94,-174 88,-180 82,-180"/>
<text text-anchor="middle" x="47" y="-159.5" font-family="sans" font-size="10.00">get_dot_rulegraph</text>
</g>
<!-- 2&#45;&gt;1 -->
<g id="edge6" class="edge">
<title>2&#45;&gt;1</title>
<path fill="none" stroke="grey" stroke-width="2" d="M71.22,-143.88C83.92,-134.89 99.66,-123.76 113.42,-114.03"/>
<polygon fill="grey" stroke="grey" stroke-width="2" points="115.54,-116.82 121.69,-108.19 111.5,-111.11 115.54,-116.82"/>
</g>
<!-- 3 -->
<g id="node4" class="node">
<title>3</title>
<path fill="none" stroke="#ced856" stroke-width="2" d="M168,-180C168,-180 124,-180 124,-180 118,-180 112,-174 112,-168 112,-168 112,-156 112,-156 112,-150 118,-144 124,-144 124,-144 168,-144 168,-144 174,-144 180,-150 180,-156 180,-156 180,-168 180,-168 180,-174 174,-180 168,-180"/>
<text text-anchor="middle" x="146" y="-159.5" font-family="sans" font-size="10.00">project_tree</text>
</g>
<!-- 3&#45;&gt;1 -->
<g id="edge5" class="edge">
<title>3&#45;&gt;1</title>
<path fill="none" stroke="grey" stroke-width="2" d="M146,-143.7C146,-135.98 146,-126.71 146,-118.11"/>
<polygon fill="grey" stroke="grey" stroke-width="2" points="149.5,-118.1 146,-108.1 142.5,-118.1 149.5,-118.1"/>
</g>
<!-- 4 -->
<g id="node5" class="node">
<title>4</title>
<path fill="none" stroke="#56b1d8" stroke-width="2" d="M307.5,-180C307.5,-180 210.5,-180 210.5,-180 204.5,-180 198.5,-174 198.5,-168 198.5,-168 198.5,-156 198.5,-156 198.5,-150 204.5,-144 210.5,-144 210.5,-144 307.5,-144 307.5,-144 313.5,-144 319.5,-150 319.5,-156 319.5,-156 319.5,-168 319.5,-168 319.5,-174 313.5,-180 307.5,-180"/>
<text text-anchor="middle" x="259" y="-159.5" font-family="sans" font-size="10.00">qiime2_phyloseq_object</text>
</g>
<!-- 4&#45;&gt;0 -->
<g id="edge3" class="edge">
<title>4&#45;&gt;0</title>
<path fill="none" stroke="grey" stroke-width="2" d="M258.78,-143.96C258.94,-125.81 260.37,-96.4 267,-72 269.48,-62.87 273.46,-53.38 277.52,-44.99"/>
<polygon fill="grey" stroke="grey" stroke-width="2" points="280.64,-46.57 282.06,-36.07 274.4,-43.4 280.64,-46.57"/>
</g>
<!-- 5 -->
<g id="node6" class="node">
<title>5</title>
<path fill="none" stroke="#56d8c9" stroke-width="2" d="M428.5,-252C428.5,-252 351.5,-252 351.5,-252 345.5,-252 339.5,-246 339.5,-240 339.5,-240 339.5,-228 339.5,-228 339.5,-222 345.5,-216 351.5,-216 351.5,-216 428.5,-216 428.5,-216 434.5,-216 440.5,-222 440.5,-228 440.5,-228 440.5,-240 440.5,-240 440.5,-246 434.5,-252 428.5,-252"/>
<text text-anchor="middle" x="390" y="-231.5" font-family="sans" font-size="10.00">import_qiime2_data</text>
</g>
<!-- 5&#45;&gt;4 -->
<g id="edge8" class="edge">
<title>5&#45;&gt;4</title>
<path fill="none" stroke="grey" stroke-width="2" d="M357.95,-215.88C340.51,-206.55 318.73,-194.92 300.06,-184.94"/>
<polygon fill="grey" stroke="grey" stroke-width="2" points="301.64,-181.82 291.17,-180.19 298.34,-187.99 301.64,-181.82"/>
</g>
<!-- 8 -->
<g id="node9" class="node">
<title>8</title>
<path fill="none" stroke="#d8b456" stroke-width="2" d="M427,-180C427,-180 353,-180 353,-180 347,-180 341,-174 341,-168 341,-168 341,-156 341,-156 341,-150 347,-144 353,-144 353,-144 427,-144 427,-144 433,-144 439,-150 439,-156 439,-156 439,-168 439,-168 439,-174 433,-180 427,-180"/>
<text text-anchor="middle" x="390" y="-159.5" font-family="sans" font-size="10.00">convert_qiime2csv</text>
</g>
<!-- 5&#45;&gt;8 -->
<g id="edge10" class="edge">
<title>5&#45;&gt;8</title>
<path fill="none" stroke="grey" stroke-width="2" d="M390,-215.7C390,-207.98 390,-198.71 390,-190.11"/>
<polygon fill="grey" stroke="grey" stroke-width="2" points="393.5,-190.1 390,-180.1 386.5,-190.1 393.5,-190.1"/>
</g>
<!-- 6 -->
<g id="node7" class="node">
<title>6</title>
<path fill="none" stroke="#d85656" stroke-width="2" d="M309.5,-252C309.5,-252 202.5,-252 202.5,-252 196.5,-252 190.5,-246 190.5,-240 190.5,-240 190.5,-228 190.5,-228 190.5,-222 196.5,-216 202.5,-216 202.5,-216 309.5,-216 309.5,-216 315.5,-216 321.5,-222 321.5,-228 321.5,-228 321.5,-240 321.5,-240 321.5,-246 315.5,-252 309.5,-252"/>
<text text-anchor="middle" x="256" y="-231.5" font-family="sans" font-size="10.00">import_demo_qiime2_data</text>
</g>
<!-- 6&#45;&gt;4 -->
<g id="edge7" class="edge">
<title>6&#45;&gt;4</title>
<path fill="none" stroke="grey" stroke-width="2" d="M256.74,-215.7C257.07,-207.98 257.47,-198.71 257.84,-190.11"/>
<polygon fill="grey" stroke="grey" stroke-width="2" points="261.34,-190.25 258.27,-180.1 254.34,-189.95 261.34,-190.25"/>
</g>
<!-- 7 -->
<g id="node8" class="node">
<title>7</title>
<path fill="none" stroke="#5682d8" stroke-width="2" d="M388.5,-108C388.5,-108 287.5,-108 287.5,-108 281.5,-108 275.5,-102 275.5,-96 275.5,-96 275.5,-84 275.5,-84 275.5,-78 281.5,-72 287.5,-72 287.5,-72 388.5,-72 388.5,-72 394.5,-72 400.5,-78 400.5,-84 400.5,-84 400.5,-96 400.5,-96 400.5,-102 394.5,-108 388.5,-108"/>
<text text-anchor="middle" x="338" y="-87.5" font-family="sans" font-size="10.00">venn_metadata_shannon</text>
</g>
<!-- 7&#45;&gt;0 -->
<g id="edge2" class="edge">
<title>7&#45;&gt;0</title>
<path fill="none" stroke="grey" stroke-width="2" d="M326.63,-71.7C321.28,-63.56 314.8,-53.69 308.89,-44.7"/>
<polygon fill="grey" stroke="grey" stroke-width="2" points="311.66,-42.54 303.24,-36.1 305.81,-46.38 311.66,-42.54"/>
</g>
<!-- 8&#45;&gt;7 -->
<g id="edge9" class="edge">
<title>8&#45;&gt;7</title>
<path fill="none" stroke="grey" stroke-width="2" d="M377.15,-143.7C370.97,-135.39 363.46,-125.28 356.68,-116.14"/>
<polygon fill="grey" stroke="grey" stroke-width="2" points="359.48,-114.04 350.71,-108.1 353.86,-118.22 359.48,-114.04"/>
</g>
<!-- 9 -->
<g id="node10" class="node">
<title>9</title>
<path fill="none" stroke="#70d856" stroke-width="2" d="M537.5,-108C537.5,-108 430.5,-108 430.5,-108 424.5,-108 418.5,-102 418.5,-96 418.5,-96 418.5,-84 418.5,-84 418.5,-78 424.5,-72 430.5,-72 430.5,-72 537.5,-72 537.5,-72 543.5,-72 549.5,-78 549.5,-84 549.5,-84 549.5,-96 549.5,-96 549.5,-102 543.5,-108 537.5,-108"/>
<text text-anchor="middle" x="484" y="-87.5" font-family="sans" font-size="10.00">lineplot_shannon_diversity</text>
</g>
<!-- 8&#45;&gt;9 -->
<g id="edge11" class="edge">
<title>8&#45;&gt;9</title>
<path fill="none" stroke="grey" stroke-width="2" d="M413.24,-143.7C425.19,-134.8 439.92,-123.82 452.85,-114.2"/>
<polygon fill="grey" stroke="grey" stroke-width="2" points="455.1,-116.88 461.03,-108.1 450.92,-111.27 455.1,-116.88"/>
</g>
<!-- 9&#45;&gt;0 -->
<g id="edge1" class="edge">
<title>9&#45;&gt;0</title>
<path fill="none" stroke="grey" stroke-width="2" d="M437.03,-71.88C403.67,-59.71 359.52,-43.62 328.73,-32.39"/>
<polygon fill="grey" stroke="grey" stroke-width="2" points="329.82,-29.06 319.23,-28.93 327.43,-35.64 329.82,-29.06"/>
</g>
</g>
</svg>
