<?xml version="1.0" encoding="UTF-8" standalone="no"?>
<!DOCTYPE svg PUBLIC "-//W3C//DTD SVG 1.1//EN"
 "http://www.w3.org/Graphics/SVG/1.1/DTD/svg11.dtd">
<!-- Generated by graphviz version 6.0.1 (0)
 -->
<!-- Title: snakemake_dag Pages: 1 -->
<svg width="454pt" height="260pt"
 viewBox="0.00 0.00 454.00 260.00" xmlns="http://www.w3.org/2000/svg" xmlns:xlink="http://www.w3.org/1999/xlink">
<g id="graph0" class="graph" transform="scale(1 1) rotate(0) translate(4 256)">
<title>snakemake_dag</title>
<polygon fill="white" stroke="none" points="-4,4 -4,-256 450,-256 450,4 -4,4"/>
<!-- 0 -->
<g id="node1" class="node">
<title>0</title>
<path fill="none" stroke="#56d8a9" stroke-width="2" d="M234,-36C234,-36 204,-36 204,-36 198,-36 192,-30 192,-24 192,-24 192,-12 192,-12 192,-6 198,0 204,0 204,0 234,0 234,0 240,0 246,-6 246,-12 246,-12 246,-24 246,-24 246,-30 240,-36 234,-36"/>
<text text-anchor="middle" x="219" y="-15.5" font-family="sans" font-size="10.00">all</text>
</g>
<!-- 1 -->
<g id="node2" class="node">
<title>1</title>
<path fill="none" stroke="#56c9d8" stroke-width="2" d="M124,-108C124,-108 12,-108 12,-108 6,-108 0,-102 0,-96 0,-96 0,-84 0,-84 0,-78 6,-72 12,-72 12,-72 124,-72 124,-72 130,-72 136,-78 136,-84 136,-84 136,-96 136,-96 136,-102 130,-108 124,-108"/>
<text text-anchor="middle" x="68" y="-87.5" font-family="sans" font-size="10.00">venn_metadata_n_shannon</text>
</g>
<!-- 1&#45;&gt;0 -->
<g id="edge1" class="edge">
<title>1&#45;&gt;0</title>
<path fill="none" stroke="grey" stroke-width="2" d="M104.94,-71.88C128.57,-60.92 159.1,-46.77 182.63,-35.86"/>
<polygon fill="grey" stroke="grey" stroke-width="2" points="184.31,-38.94 191.91,-31.56 181.37,-32.59 184.31,-38.94"/>
</g>
<!-- 2 -->
<g id="node3" class="node">
<title>2</title>
<path fill="none" stroke="#d85656" stroke-width="2" d="M214.5,-180C214.5,-180 61.5,-180 61.5,-180 55.5,-180 49.5,-174 49.5,-168 49.5,-168 49.5,-156 49.5,-156 49.5,-150 55.5,-144 61.5,-144 61.5,-144 214.5,-144 214.5,-144 220.5,-144 226.5,-150 226.5,-156 226.5,-156 226.5,-168 226.5,-168 226.5,-174 220.5,-180 214.5,-180"/>
<text text-anchor="middle" x="138" y="-159.5" font-family="sans" font-size="10.00">qiime2R_metadata_shannon_objects</text>
</g>
<!-- 2&#45;&gt;1 -->
<g id="edge4" class="edge">
<title>2&#45;&gt;1</title>
<path fill="none" stroke="grey" stroke-width="2" d="M120.7,-143.7C112.14,-135.14 101.66,-124.66 92.3,-115.3"/>
<polygon fill="grey" stroke="grey" stroke-width="2" points="94.65,-112.7 85.1,-108.1 89.7,-117.65 94.65,-112.7"/>
</g>
<!-- 4 -->
<g id="node5" class="node">
<title>4</title>
<path fill="none" stroke="#d88d56" stroke-width="2" d="M272,-108C272,-108 166,-108 166,-108 160,-108 154,-102 154,-96 154,-96 154,-84 154,-84 154,-78 160,-72 166,-72 166,-72 272,-72 272,-72 278,-72 284,-78 284,-84 284,-84 284,-96 284,-96 284,-102 278,-108 272,-108"/>
<text text-anchor="middle" x="219" y="-87.5" font-family="sans" font-size="10.00">line_point_plot_w_errorbar</text>
</g>
<!-- 2&#45;&gt;4 -->
<g id="edge6" class="edge">
<title>2&#45;&gt;4</title>
<path fill="none" stroke="grey" stroke-width="2" d="M158.02,-143.7C168.13,-134.97 180.54,-124.24 191.52,-114.75"/>
<polygon fill="grey" stroke="grey" stroke-width="2" points="193.93,-117.29 199.21,-108.1 189.35,-111.99 193.93,-117.29"/>
</g>
<!-- 3 -->
<g id="node4" class="node">
<title>3</title>
<path fill="none" stroke="#5692d8" stroke-width="2" d="M176.5,-252C176.5,-252 99.5,-252 99.5,-252 93.5,-252 87.5,-246 87.5,-240 87.5,-240 87.5,-228 87.5,-228 87.5,-222 93.5,-216 99.5,-216 99.5,-216 176.5,-216 176.5,-216 182.5,-216 188.5,-222 188.5,-228 188.5,-228 188.5,-240 188.5,-240 188.5,-246 182.5,-252 176.5,-252"/>
<text text-anchor="middle" x="138" y="-231.5" font-family="sans" font-size="10.00">import_qiime2_data</text>
</g>
<!-- 3&#45;&gt;2 -->
<g id="edge5" class="edge">
<title>3&#45;&gt;2</title>
<path fill="none" stroke="grey" stroke-width="2" d="M138,-215.7C138,-207.98 138,-198.71 138,-190.11"/>
<polygon fill="grey" stroke="grey" stroke-width="2" points="141.5,-190.1 138,-180.1 134.5,-190.1 141.5,-190.1"/>
</g>
<!-- 4&#45;&gt;0 -->
<g id="edge2" class="edge">
<title>4&#45;&gt;0</title>
<path fill="none" stroke="grey" stroke-width="2" d="M219,-71.7C219,-63.98 219,-54.71 219,-46.11"/>
<polygon fill="grey" stroke="grey" stroke-width="2" points="222.5,-46.1 219,-36.1 215.5,-46.1 222.5,-46.1"/>
</g>
<!-- 5 -->
<g id="node6" class="node">
<title>5</title>
<path fill="none" stroke="#70d856" stroke-width="2" d="M412,-108C412,-108 314,-108 314,-108 308,-108 302,-102 302,-96 302,-96 302,-84 302,-84 302,-78 308,-72 314,-72 314,-72 412,-72 412,-72 418,-72 424,-78 424,-84 424,-84 424,-96 424,-96 424,-102 418,-108 412,-108"/>
<text text-anchor="middle" x="363" y="-87.5" font-family="sans" font-size="10.00">deploy_to_github_pages</text>
</g>
<!-- 5&#45;&gt;0 -->
<g id="edge3" class="edge">
<title>5&#45;&gt;0</title>
<path fill="none" stroke="grey" stroke-width="2" d="M327.77,-71.88C305.77,-61.18 277.51,-47.44 255.3,-36.65"/>
<polygon fill="grey" stroke="grey" stroke-width="2" points="256.72,-33.44 246.2,-32.22 253.66,-39.74 256.72,-33.44"/>
</g>
<!-- 6 -->
<g id="node7" class="node">
<title>6</title>
<path fill="none" stroke="#afd856" stroke-width="2" d="M348,-180C348,-180 278,-180 278,-180 272,-180 266,-174 266,-168 266,-168 266,-156 266,-156 266,-150 272,-144 278,-144 278,-144 348,-144 348,-144 354,-144 360,-150 360,-156 360,-156 360,-168 360,-168 360,-174 354,-180 348,-180"/>
<text text-anchor="middle" x="313" y="-159.5" font-family="sans" font-size="10.00">get_dot_rulegraph</text>
</g>
<!-- 6&#45;&gt;5 -->
<g id="edge8" class="edge">
<title>6&#45;&gt;5</title>
<path fill="none" stroke="grey" stroke-width="2" d="M325.36,-143.7C331.23,-135.47 338.37,-125.48 344.84,-116.42"/>
<polygon fill="grey" stroke="grey" stroke-width="2" points="347.82,-118.28 350.78,-108.1 342.12,-114.21 347.82,-118.28"/>
</g>
<!-- 7 -->
<g id="node8" class="node">
<title>7</title>
<path fill="none" stroke="#56d873" stroke-width="2" d="M434,-180C434,-180 390,-180 390,-180 384,-180 378,-174 378,-168 378,-168 378,-156 378,-156 378,-150 384,-144 390,-144 390,-144 434,-144 434,-144 440,-144 446,-150 446,-156 446,-156 446,-168 446,-168 446,-174 440,-180 434,-180"/>
<text text-anchor="middle" x="412" y="-159.5" font-family="sans" font-size="10.00">project_tree</text>
</g>
<!-- 7&#45;&gt;5 -->
<g id="edge7" class="edge">
<title>7&#45;&gt;5</title>
<path fill="none" stroke="grey" stroke-width="2" d="M399.89,-143.7C394.13,-135.47 387.14,-125.48 380.79,-116.42"/>
<polygon fill="grey" stroke="grey" stroke-width="2" points="383.58,-114.29 374.97,-108.1 377.84,-118.3 383.58,-114.29"/>
</g>
</g>
</svg>
