<?xml version="1.0" encoding="UTF-8" standalone="no"?>
<!DOCTYPE svg PUBLIC "-//W3C//DTD SVG 1.1//EN"
 "http://www.w3.org/Graphics/SVG/1.1/DTD/svg11.dtd">
<!-- Generated by graphviz version 6.0.1 (0)
 -->
<!-- Title: snakemake_dag Pages: 1 -->
<svg width="899pt" height="260pt"
 viewBox="0.00 0.00 898.50 260.00" xmlns="http://www.w3.org/2000/svg" xmlns:xlink="http://www.w3.org/1999/xlink">
<g id="graph0" class="graph" transform="scale(1 1) rotate(0) translate(4 256)">
<title>snakemake_dag</title>
<polygon fill="white" stroke="none" points="-4,4 -4,-256 894.5,-256 894.5,4 -4,4"/>
<!-- 0 -->
<g id="node1" class="node">
<title>0</title>
<path fill="none" stroke="#56d86b" stroke-width="2" d="M549,-36C549,-36 519,-36 519,-36 513,-36 507,-30 507,-24 507,-24 507,-12 507,-12 507,-6 513,0 519,0 519,0 549,0 549,0 555,0 561,-6 561,-12 561,-12 561,-24 561,-24 561,-30 555,-36 549,-36"/>
<text text-anchor="middle" x="534" y="-15.5" font-family="sans" font-size="10.00">all</text>
</g>
<!-- 1 -->
<g id="node2" class="node">
<title>1</title>
<path fill="none" stroke="#d87556" stroke-width="2" d="M187,-108C187,-108 89,-108 89,-108 83,-108 77,-102 77,-96 77,-96 77,-84 77,-84 77,-78 83,-72 89,-72 89,-72 187,-72 187,-72 193,-72 199,-78 199,-84 199,-84 199,-96 199,-96 199,-102 193,-108 187,-108"/>
<text text-anchor="middle" x="138" y="-87.5" font-family="sans" font-size="10.00">deploy_to_github_pages</text>
</g>
<!-- 1&#45;&gt;0 -->
<g id="edge1" class="edge">
<title>1&#45;&gt;0</title>
<path fill="none" stroke="grey" stroke-width="2" d="M199.02,-73.89C202.05,-73.23 205.06,-72.6 208,-72 311.91,-50.97 435.78,-32.67 496.57,-24.13"/>
<polygon fill="grey" stroke="grey" stroke-width="2" points="497.4,-27.54 506.82,-22.7 496.44,-20.61 497.4,-27.54"/>
</g>
<!-- 2 -->
<g id="node3" class="node">
<title>2</title>
<path fill="none" stroke="#d8bc56" stroke-width="2" d="M82,-180C82,-180 12,-180 12,-180 6,-180 0,-174 0,-168 0,-168 0,-156 0,-156 0,-150 6,-144 12,-144 12,-144 82,-144 82,-144 88,-144 94,-150 94,-156 94,-156 94,-168 94,-168 94,-174 88,-180 82,-180"/>
<text text-anchor="middle" x="47" y="-159.5" font-family="sans" font-size="10.00">get_dot_rulegraph</text>
</g>
<!-- 2&#45;&gt;1 -->
<g id="edge9" class="edge">
<title>2&#45;&gt;1</title>
<path fill="none" stroke="grey" stroke-width="2" d="M69.49,-143.7C80.96,-134.88 95.06,-124.03 107.48,-114.47"/>
<polygon fill="grey" stroke="grey" stroke-width="2" points="109.97,-116.98 115.76,-108.1 105.7,-111.43 109.97,-116.98"/>
</g>
<!-- 3 -->
<g id="node4" class="node">
<title>3</title>
<path fill="none" stroke="#ced856" stroke-width="2" d="M168,-180C168,-180 124,-180 124,-180 118,-180 112,-174 112,-168 112,-168 112,-156 112,-156 112,-150 118,-144 124,-144 124,-144 168,-144 168,-144 174,-144 180,-150 180,-156 180,-156 180,-168 180,-168 180,-174 174,-180 168,-180"/>
<text text-anchor="middle" x="146" y="-159.5" font-family="sans" font-size="10.00">project_tree</text>
</g>
<!-- 3&#45;&gt;1 -->
<g id="edge10" class="edge">
<title>3&#45;&gt;1</title>
<path fill="none" stroke="grey" stroke-width="2" d="M144.02,-143.7C143.14,-135.98 142.08,-126.71 141.1,-118.11"/>
<polygon fill="grey" stroke="grey" stroke-width="2" points="144.57,-117.64 139.95,-108.1 137.61,-118.44 144.57,-117.64"/>
</g>
<!-- 4 -->
<g id="node5" class="node">
<title>4</title>
<path fill="none" stroke="#567bd8" stroke-width="2" d="M421.5,-108C421.5,-108 324.5,-108 324.5,-108 318.5,-108 312.5,-102 312.5,-96 312.5,-96 312.5,-84 312.5,-84 312.5,-78 318.5,-72 324.5,-72 324.5,-72 421.5,-72 421.5,-72 427.5,-72 433.5,-78 433.5,-84 433.5,-84 433.5,-96 433.5,-96 433.5,-102 427.5,-108 421.5,-108"/>
<text text-anchor="middle" x="373" y="-87.5" font-family="sans" font-size="10.00">qiime2_phyloseq_object</text>
</g>
<!-- 4&#45;&gt;0 -->
<g id="edge8" class="edge">
<title>4&#45;&gt;0</title>
<path fill="none" stroke="grey" stroke-width="2" d="M412.39,-71.88C438.3,-60.61 472,-45.96 497.35,-34.94"/>
<polygon fill="grey" stroke="grey" stroke-width="2" points="498.84,-38.1 506.62,-30.9 496.05,-31.68 498.84,-38.1"/>
</g>
<!-- 5 -->
<g id="node6" class="node">
<title>5</title>
<path fill="none" stroke="#afd856" stroke-width="2" d="M358.5,-252C358.5,-252 281.5,-252 281.5,-252 275.5,-252 269.5,-246 269.5,-240 269.5,-240 269.5,-228 269.5,-228 269.5,-222 275.5,-216 281.5,-216 281.5,-216 358.5,-216 358.5,-216 364.5,-216 370.5,-222 370.5,-228 370.5,-228 370.5,-240 370.5,-240 370.5,-246 364.5,-252 358.5,-252"/>
<text text-anchor="middle" x="320" y="-231.5" font-family="sans" font-size="10.00">import_qiime2_data</text>
</g>
<!-- 5&#45;&gt;4 -->
<g id="edge12" class="edge">
<title>5&#45;&gt;4</title>
<path fill="none" stroke="grey" stroke-width="2" d="M326.39,-215.87C335.51,-191.46 352.31,-146.43 363.06,-117.64"/>
<polygon fill="grey" stroke="grey" stroke-width="2" points="366.37,-118.78 366.58,-108.19 359.81,-116.33 366.37,-118.78"/>
</g>
<!-- 8 -->
<g id="node9" class="node">
<title>8</title>
<path fill="none" stroke="#56d8a9" stroke-width="2" d="M312,-180C312,-180 238,-180 238,-180 232,-180 226,-174 226,-168 226,-168 226,-156 226,-156 226,-150 232,-144 238,-144 238,-144 312,-144 312,-144 318,-144 324,-150 324,-156 324,-156 324,-168 324,-168 324,-174 318,-180 312,-180"/>
<text text-anchor="middle" x="275" y="-159.5" font-family="sans" font-size="10.00">convert_qiime2csv</text>
</g>
<!-- 5&#45;&gt;8 -->
<g id="edge14" class="edge">
<title>5&#45;&gt;8</title>
<path fill="none" stroke="grey" stroke-width="2" d="M308.88,-215.7C303.64,-207.56 297.3,-197.69 291.52,-188.7"/>
<polygon fill="grey" stroke="grey" stroke-width="2" points="294.35,-186.62 286,-180.1 288.46,-190.41 294.35,-186.62"/>
</g>
<!-- 6 -->
<g id="node7" class="node">
<title>6</title>
<path fill="none" stroke="#d85656" stroke-width="2" d="M679.5,-180C679.5,-180 572.5,-180 572.5,-180 566.5,-180 560.5,-174 560.5,-168 560.5,-168 560.5,-156 560.5,-156 560.5,-150 566.5,-144 572.5,-144 572.5,-144 679.5,-144 679.5,-144 685.5,-144 691.5,-150 691.5,-156 691.5,-156 691.5,-168 691.5,-168 691.5,-174 685.5,-180 679.5,-180"/>
<text text-anchor="middle" x="626" y="-159.5" font-family="sans" font-size="10.00">import_demo_qiime2_data</text>
</g>
<!-- 6&#45;&gt;4 -->
<g id="edge11" class="edge">
<title>6&#45;&gt;4</title>
<path fill="none" stroke="grey" stroke-width="2" d="M564.43,-143.97C527.91,-133.86 481.48,-121.02 443.5,-110.51"/>
<polygon fill="grey" stroke="grey" stroke-width="2" points="444.1,-107.04 433.53,-107.75 442.23,-113.79 444.1,-107.04"/>
</g>
<!-- 9 -->
<g id="node10" class="node">
<title>9</title>
<path fill="none" stroke="#68d856" stroke-width="2" d="M700.5,-108C700.5,-108 645.5,-108 645.5,-108 639.5,-108 633.5,-102 633.5,-96 633.5,-96 633.5,-84 633.5,-84 633.5,-78 639.5,-72 645.5,-72 645.5,-72 700.5,-72 700.5,-72 706.5,-72 712.5,-78 712.5,-84 712.5,-84 712.5,-96 712.5,-96 712.5,-102 706.5,-108 700.5,-108"/>
<text text-anchor="middle" x="673" y="-87.5" font-family="sans" font-size="10.00">line_point_plot</text>
</g>
<!-- 6&#45;&gt;9 -->
<g id="edge15" class="edge">
<title>6&#45;&gt;9</title>
<path fill="none" stroke="grey" stroke-width="2" d="M637.62,-143.7C643.14,-135.47 649.85,-125.48 655.93,-116.42"/>
<polygon fill="grey" stroke="grey" stroke-width="2" points="658.85,-118.36 661.52,-108.1 653.04,-114.46 658.85,-118.36"/>
</g>
<!-- 10 -->
<g id="node11" class="node">
<title>10</title>
<path fill="none" stroke="#569ad8" stroke-width="2" d="M775,-108C775,-108 743,-108 743,-108 737,-108 731,-102 731,-96 731,-96 731,-84 731,-84 731,-78 737,-72 743,-72 743,-72 775,-72 775,-72 781,-72 787,-78 787,-84 787,-84 787,-96 787,-96 787,-102 781,-108 775,-108"/>
<text text-anchor="middle" x="759" y="-87.5" font-family="sans" font-size="10.00">jitter_plot</text>
</g>
<!-- 6&#45;&gt;10 -->
<g id="edge16" class="edge">
<title>6&#45;&gt;10</title>
<path fill="none" stroke="grey" stroke-width="2" d="M658.54,-143.88C677.66,-133.81 701.9,-121.05 721.78,-110.59"/>
<polygon fill="grey" stroke="grey" stroke-width="2" points="723.64,-113.57 730.86,-105.81 720.38,-107.37 723.64,-113.57"/>
</g>
<!-- 11 -->
<g id="node12" class="node">
<title>11</title>
<path fill="none" stroke="#56c1d8" stroke-width="2" d="M878.5,-108C878.5,-108 817.5,-108 817.5,-108 811.5,-108 805.5,-102 805.5,-96 805.5,-96 805.5,-84 805.5,-84 805.5,-78 811.5,-72 817.5,-72 817.5,-72 878.5,-72 878.5,-72 884.5,-72 890.5,-78 890.5,-84 890.5,-84 890.5,-96 890.5,-96 890.5,-102 884.5,-108 878.5,-108"/>
<text text-anchor="middle" x="848" y="-87.5" font-family="sans" font-size="10.00">pcoa_ordination</text>
</g>
<!-- 6&#45;&gt;11 -->
<g id="edge17" class="edge">
<title>6&#45;&gt;11</title>
<path fill="none" stroke="grey" stroke-width="2" d="M681.57,-143.89C712.54,-134.3 752.02,-122 795.75,-108.06"/>
<polygon fill="grey" stroke="grey" stroke-width="2" points="796.99,-111.34 805.45,-104.96 794.86,-104.67 796.99,-111.34"/>
</g>
<!-- 12 -->
<g id="node13" class="node">
<title>12</title>
<path fill="none" stroke="#88d856" stroke-width="2" d="M514.5,-108C514.5,-108 463.5,-108 463.5,-108 457.5,-108 451.5,-102 451.5,-96 451.5,-96 451.5,-84 451.5,-84 451.5,-78 457.5,-72 463.5,-72 463.5,-72 514.5,-72 514.5,-72 520.5,-72 526.5,-78 526.5,-84 526.5,-84 526.5,-96 526.5,-96 526.5,-102 520.5,-108 514.5,-108"/>
<text text-anchor="middle" x="489" y="-87.5" font-family="sans" font-size="10.00">heatmap_plot</text>
</g>
<!-- 6&#45;&gt;12 -->
<g id="edge18" class="edge">
<title>6&#45;&gt;12</title>
<path fill="none" stroke="grey" stroke-width="2" d="M592.49,-143.88C574.16,-134.51 551.26,-122.81 531.67,-112.8"/>
<polygon fill="grey" stroke="grey" stroke-width="2" points="533.14,-109.62 522.64,-108.19 529.96,-115.86 533.14,-109.62"/>
</g>
<!-- 13 -->
<g id="node14" class="node">
<title>13</title>
<path fill="none" stroke="#56d8d0" stroke-width="2" d="M603,-108C603,-108 557,-108 557,-108 551,-108 545,-102 545,-96 545,-96 545,-84 545,-84 545,-78 551,-72 557,-72 557,-72 603,-72 603,-72 609,-72 615,-78 615,-84 615,-84 615,-96 615,-96 615,-102 609,-108 603,-108"/>
<text text-anchor="middle" x="580" y="-87.5" font-family="sans" font-size="10.00">taxa_barplot</text>
</g>
<!-- 6&#45;&gt;13 -->
<g id="edge19" class="edge">
<title>6&#45;&gt;13</title>
<path fill="none" stroke="grey" stroke-width="2" d="M614.63,-143.7C609.28,-135.56 602.8,-125.69 596.89,-116.7"/>
<polygon fill="grey" stroke="grey" stroke-width="2" points="599.66,-114.54 591.24,-108.1 593.81,-118.38 599.66,-114.54"/>
</g>
<!-- 7 -->
<g id="node8" class="node">
<title>7</title>
<path fill="none" stroke="#d89c56" stroke-width="2" d="M282.5,-108C282.5,-108 229.5,-108 229.5,-108 223.5,-108 217.5,-102 217.5,-96 217.5,-96 217.5,-84 217.5,-84 217.5,-78 223.5,-72 229.5,-72 229.5,-72 282.5,-72 282.5,-72 288.5,-72 294.5,-78 294.5,-84 294.5,-84 294.5,-96 294.5,-96 294.5,-102 288.5,-108 282.5,-108"/>
<text text-anchor="middle" x="256" y="-87.5" font-family="sans" font-size="10.00">venn_diagram</text>
</g>
<!-- 7&#45;&gt;0 -->
<g id="edge2" class="edge">
<title>7&#45;&gt;0</title>
<path fill="none" stroke="grey" stroke-width="2" d="M294.61,-74.62C297.43,-73.69 300.25,-72.81 303,-72 370.38,-52.16 450.61,-35.22 496.6,-26.12"/>
<polygon fill="grey" stroke="grey" stroke-width="2" points="497.56,-29.5 506.7,-24.15 496.21,-22.63 497.56,-29.5"/>
</g>
<!-- 8&#45;&gt;7 -->
<g id="edge13" class="edge">
<title>8&#45;&gt;7</title>
<path fill="none" stroke="grey" stroke-width="2" d="M270.3,-143.7C268.19,-135.9 265.64,-126.51 263.28,-117.83"/>
<polygon fill="grey" stroke="grey" stroke-width="2" points="266.64,-116.84 260.64,-108.1 259.88,-118.67 266.64,-116.84"/>
</g>
<!-- 9&#45;&gt;0 -->
<g id="edge4" class="edge">
<title>9&#45;&gt;0</title>
<path fill="none" stroke="grey" stroke-width="2" d="M639,-71.88C618.13,-61.37 591.44,-47.92 570.18,-37.22"/>
<polygon fill="grey" stroke="grey" stroke-width="2" points="571.65,-34.04 561.14,-32.67 568.5,-40.29 571.65,-34.04"/>
</g>
<!-- 10&#45;&gt;0 -->
<g id="edge7" class="edge">
<title>10&#45;&gt;0</title>
<path fill="none" stroke="grey" stroke-width="2" d="M730.96,-75.91C727.63,-74.52 724.26,-73.18 721,-72 669.98,-53.47 609.23,-37.3 571.14,-27.84"/>
<polygon fill="grey" stroke="grey" stroke-width="2" points="571.56,-24.34 561.02,-25.35 569.89,-31.14 571.56,-24.34"/>
</g>
<!-- 11&#45;&gt;0 -->
<g id="edge6" class="edge">
<title>11&#45;&gt;0</title>
<path fill="none" stroke="grey" stroke-width="2" d="M805.27,-74.59C802.14,-73.67 799.03,-72.8 796,-72 716.65,-51.08 621.93,-33.77 570.92,-25.07"/>
<polygon fill="grey" stroke="grey" stroke-width="2" points="571.46,-21.61 561.02,-23.4 570.29,-28.51 571.46,-21.61"/>
</g>
<!-- 12&#45;&gt;0 -->
<g id="edge3" class="edge">
<title>12&#45;&gt;0</title>
<path fill="none" stroke="grey" stroke-width="2" d="M500.12,-71.7C505.36,-63.56 511.7,-53.69 517.48,-44.7"/>
<polygon fill="grey" stroke="grey" stroke-width="2" points="520.54,-46.41 523,-36.1 514.65,-42.62 520.54,-46.41"/>
</g>
<!-- 13&#45;&gt;0 -->
<g id="edge5" class="edge">
<title>13&#45;&gt;0</title>
<path fill="none" stroke="grey" stroke-width="2" d="M568.63,-71.7C563.28,-63.56 556.8,-53.69 550.89,-44.7"/>
<polygon fill="grey" stroke="grey" stroke-width="2" points="553.66,-42.54 545.24,-36.1 547.81,-46.38 553.66,-42.54"/>
</g>
</g>
</svg>
