<?xml version="1.0" encoding="UTF-8" standalone="no"?>
<!DOCTYPE svg PUBLIC "-//W3C//DTD SVG 1.1//EN"
 "http://www.w3.org/Graphics/SVG/1.1/DTD/svg11.dtd">
<!-- Generated by graphviz version 8.0.5 (0)
 -->
<!-- Title: snakemake_dag Pages: 1 -->
<svg width="326pt" height="260pt"
 viewBox="0.00 0.00 325.62 260.00" xmlns="http://www.w3.org/2000/svg" xmlns:xlink="http://www.w3.org/1999/xlink">
<g id="graph0" class="graph" transform="scale(1 1) rotate(0) translate(4 256)">
<title>snakemake_dag</title>
<polygon fill="white" stroke="none" points="-4,4 -4,-256 321.62,-256 321.62,4 -4,4"/>
<!-- 0 -->
<g id="node1" class="node">
<title>0</title>
<path fill="none" stroke="#d8ac56" stroke-width="2" d="M145.38,-36C145.38,-36 115.38,-36 115.38,-36 109.38,-36 103.38,-30 103.38,-24 103.38,-24 103.38,-12 103.38,-12 103.38,-6 109.38,0 115.38,0 115.38,0 145.38,0 145.38,0 151.38,0 157.38,-6 157.38,-12 157.38,-12 157.38,-24 157.38,-24 157.38,-30 151.38,-36 145.38,-36"/>
<text text-anchor="middle" x="130.38" y="-14.12" font-family="sans" font-size="10.00">all</text>
</g>
<!-- 1 -->
<g id="node2" class="node">
<title>1</title>
<path fill="none" stroke="#afd856" stroke-width="2" d="M88.75,-252C88.75,-252 12,-252 12,-252 6,-252 0,-246 0,-240 0,-240 0,-228 0,-228 0,-222 6,-216 12,-216 12,-216 88.75,-216 88.75,-216 94.75,-216 100.75,-222 100.75,-228 100.75,-228 100.75,-240 100.75,-240 100.75,-246 94.75,-252 88.75,-252"/>
<text text-anchor="middle" x="50.38" y="-230.12" font-family="sans" font-size="10.00">process_input_data</text>
</g>
<!-- 1&#45;&gt;0 -->
<g id="edge3" class="edge">
<title>1&#45;&gt;0</title>
<path fill="none" stroke="grey" stroke-width="2" d="M42.31,-215.09C29.49,-183.7 8.51,-117.75 35.38,-72 47.25,-51.77 69.97,-38.69 90.21,-30.59"/>
<polygon fill="grey" stroke="grey" stroke-width="2" points="92.18,-33.88 100.38,-27.17 89.78,-27.3 92.18,-33.88"/>
</g>
<!-- 3 -->
<g id="node4" class="node">
<title>3</title>
<path fill="none" stroke="#59d856" stroke-width="2" d="M112.62,-180C112.62,-180 56.12,-180 56.12,-180 50.12,-180 44.12,-174 44.12,-168 44.12,-168 44.12,-156 44.12,-156 44.12,-150 50.12,-144 56.12,-144 56.12,-144 112.62,-144 112.62,-144 118.62,-144 124.62,-150 124.62,-156 124.62,-156 124.62,-168 124.62,-168 124.62,-174 118.62,-180 112.62,-180"/>
<text text-anchor="middle" x="84.38" y="-158.12" font-family="sans" font-size="10.00">tidy_dataframe</text>
</g>
<!-- 1&#45;&gt;3 -->
<g id="edge6" class="edge">
<title>1&#45;&gt;3</title>
<path fill="none" stroke="grey" stroke-width="2" d="M58.95,-215.34C62.31,-208.43 66.25,-200.31 70.02,-192.56"/>
<polygon fill="grey" stroke="grey" stroke-width="2" points="73.46,-193.43 74.68,-182.9 67.16,-190.37 73.46,-193.43"/>
</g>
<!-- 2 -->
<g id="node3" class="node">
<title>2</title>
<path fill="none" stroke="#56d8a9" stroke-width="2" d="M106.25,-108C106.25,-108 56.5,-108 56.5,-108 50.5,-108 44.5,-102 44.5,-96 44.5,-96 44.5,-84 44.5,-84 44.5,-78 50.5,-72 56.5,-72 56.5,-72 106.25,-72 106.25,-72 112.25,-72 118.25,-78 118.25,-84 118.25,-84 118.25,-96 118.25,-96 118.25,-102 112.25,-108 106.25,-108"/>
<text text-anchor="middle" x="81.38" y="-86.12" font-family="sans" font-size="10.00">basic_barplot</text>
</g>
<!-- 2&#45;&gt;0 -->
<g id="edge2" class="edge">
<title>2&#45;&gt;0</title>
<path fill="none" stroke="grey" stroke-width="2" d="M93.74,-71.34C98.81,-64.1 104.8,-55.53 110.46,-47.45"/>
<polygon fill="grey" stroke="grey" stroke-width="2" points="113.98,-49.1 116.84,-38.9 108.24,-45.09 113.98,-49.1"/>
</g>
<!-- 3&#45;&gt;2 -->
<g id="edge5" class="edge">
<title>3&#45;&gt;2</title>
<path fill="none" stroke="grey" stroke-width="2" d="M83.62,-143.34C83.34,-136.75 83.01,-129.08 82.69,-121.67"/>
<polygon fill="grey" stroke="grey" stroke-width="2" points="86.07,-121.74 82.14,-111.9 79.07,-122.04 86.07,-121.74"/>
</g>
<!-- 4 -->
<g id="node5" class="node">
<title>4</title>
<path fill="none" stroke="#56a9d8" stroke-width="2" d="M212.75,-108C212.75,-108 148,-108 148,-108 142,-108 136,-102 136,-96 136,-96 136,-84 136,-84 136,-78 142,-72 148,-72 148,-72 212.75,-72 212.75,-72 218.75,-72 224.75,-78 224.75,-84 224.75,-84 224.75,-96 224.75,-96 224.75,-102 218.75,-108 212.75,-108"/>
<text text-anchor="middle" x="180.38" y="-86.12" font-family="sans" font-size="10.00">barplot_w_labels</text>
</g>
<!-- 3&#45;&gt;4 -->
<g id="edge7" class="edge">
<title>3&#45;&gt;4</title>
<path fill="none" stroke="grey" stroke-width="2" d="M108.85,-143.15C120.02,-135.01 133.45,-125.22 145.64,-116.33"/>
<polygon fill="grey" stroke="grey" stroke-width="2" points="147.93,-118.53 153.95,-109.81 143.8,-112.88 147.93,-118.53"/>
</g>
<!-- 4&#45;&gt;0 -->
<g id="edge4" class="edge">
<title>4&#45;&gt;0</title>
<path fill="none" stroke="grey" stroke-width="2" d="M167.76,-71.34C162.59,-64.1 156.47,-55.53 150.7,-47.45"/>
<polygon fill="grey" stroke="grey" stroke-width="2" points="152.82,-45 144.16,-38.9 147.13,-49.07 152.82,-45"/>
</g>
<!-- 5 -->
<g id="node6" class="node">
<title>5</title>
<path fill="none" stroke="#d85656" stroke-width="2" d="M305.62,-108C305.62,-108 255.12,-108 255.12,-108 249.12,-108 243.12,-102 243.12,-96 243.12,-96 243.12,-84 243.12,-84 243.12,-78 249.12,-72 255.12,-72 255.12,-72 305.62,-72 305.62,-72 311.62,-72 317.62,-78 317.62,-84 317.62,-84 317.62,-96 317.62,-96 317.62,-102 311.62,-108 305.62,-108"/>
<text text-anchor="middle" x="280.38" y="-86.12" font-family="sans" font-size="10.00">get_rulegraph</text>
</g>
<!-- 5&#45;&gt;0 -->
<g id="edge1" class="edge">
<title>5&#45;&gt;0</title>
<path fill="none" stroke="grey" stroke-width="2" d="M242.14,-71.15C220.02,-60.83 192.23,-47.87 169.9,-37.45"/>
<polygon fill="grey" stroke="grey" stroke-width="2" points="170.67,-34.01 160.13,-32.95 167.71,-40.35 170.67,-34.01"/>
</g>
</g>
</svg>
