<?xml version="1.0" encoding="UTF-8" standalone="no"?>
<!DOCTYPE svg PUBLIC "-//W3C//DTD SVG 1.1//EN"
 "http://www.w3.org/Graphics/SVG/1.1/DTD/svg11.dtd">
<!-- Generated by graphviz version 6.0.1 (0)
 -->
<!-- Title: snakemake_dag Pages: 1 -->
<svg width="810pt" height="260pt"
 viewBox="0.00 0.00 809.50 260.00" xmlns="http://www.w3.org/2000/svg" xmlns:xlink="http://www.w3.org/1999/xlink">
<g id="graph0" class="graph" transform="scale(1 1) rotate(0) translate(4 256)">
<title>snakemake_dag</title>
<polygon fill="white" stroke="none" points="-4,4 -4,-256 805.5,-256 805.5,4 -4,4"/>
<!-- 0 -->
<g id="node1" class="node">
<title>0</title>
<path fill="none" stroke="#78d856" stroke-width="2" d="M504,-36C504,-36 474,-36 474,-36 468,-36 462,-30 462,-24 462,-24 462,-12 462,-12 462,-6 468,0 474,0 474,0 504,0 504,0 510,0 516,-6 516,-12 516,-12 516,-24 516,-24 516,-30 510,-36 504,-36"/>
<text text-anchor="middle" x="489" y="-15.5" font-family="sans" font-size="10.00">all</text>
</g>
<!-- 1 -->
<g id="node2" class="node">
<title>1</title>
<path fill="none" stroke="#567bd8" stroke-width="2" d="M187,-108C187,-108 89,-108 89,-108 83,-108 77,-102 77,-96 77,-96 77,-84 77,-84 77,-78 83,-72 89,-72 89,-72 187,-72 187,-72 193,-72 199,-78 199,-84 199,-84 199,-96 199,-96 199,-102 193,-108 187,-108"/>
<text text-anchor="middle" x="138" y="-87.5" font-family="sans" font-size="10.00">deploy_to_github_pages</text>
</g>
<!-- 1&#45;&gt;0 -->
<g id="edge7" class="edge">
<title>1&#45;&gt;0</title>
<path fill="none" stroke="grey" stroke-width="2" d="M199.04,-73.98C202.07,-73.3 205.07,-72.63 208,-72 294.9,-53.27 397.71,-34.81 451.66,-25.41"/>
<polygon fill="grey" stroke="grey" stroke-width="2" points="452.53,-28.81 461.78,-23.65 451.33,-21.91 452.53,-28.81"/>
</g>
<!-- 2 -->
<g id="node3" class="node">
<title>2</title>
<path fill="none" stroke="#59d856" stroke-width="2" d="M82,-180C82,-180 12,-180 12,-180 6,-180 0,-174 0,-168 0,-168 0,-156 0,-156 0,-150 6,-144 12,-144 12,-144 82,-144 82,-144 88,-144 94,-150 94,-156 94,-156 94,-168 94,-168 94,-174 88,-180 82,-180"/>
<text text-anchor="middle" x="47" y="-159.5" font-family="sans" font-size="10.00">get_dot_rulegraph</text>
</g>
<!-- 2&#45;&gt;1 -->
<g id="edge8" class="edge">
<title>2&#45;&gt;1</title>
<path fill="none" stroke="grey" stroke-width="2" d="M69.49,-143.7C80.96,-134.88 95.06,-124.03 107.48,-114.47"/>
<polygon fill="grey" stroke="grey" stroke-width="2" points="109.97,-116.98 115.76,-108.1 105.7,-111.43 109.97,-116.98"/>
</g>
<!-- 3 -->
<g id="node4" class="node">
<title>3</title>
<path fill="none" stroke="#56d87b" stroke-width="2" d="M168,-180C168,-180 124,-180 124,-180 118,-180 112,-174 112,-168 112,-168 112,-156 112,-156 112,-150 118,-144 124,-144 124,-144 168,-144 168,-144 174,-144 180,-150 180,-156 180,-156 180,-168 180,-168 180,-174 174,-180 168,-180"/>
<text text-anchor="middle" x="146" y="-159.5" font-family="sans" font-size="10.00">project_tree</text>
</g>
<!-- 3&#45;&gt;1 -->
<g id="edge9" class="edge">
<title>3&#45;&gt;1</title>
<path fill="none" stroke="grey" stroke-width="2" d="M144.02,-143.7C143.14,-135.98 142.08,-126.71 141.1,-118.11"/>
<polygon fill="grey" stroke="grey" stroke-width="2" points="144.57,-117.64 139.95,-108.1 137.61,-118.44 144.57,-117.64"/>
</g>
<!-- 4 -->
<g id="node5" class="node">
<title>4</title>
<path fill="none" stroke="#d85656" stroke-width="2" d="M421.5,-108C421.5,-108 324.5,-108 324.5,-108 318.5,-108 312.5,-102 312.5,-96 312.5,-96 312.5,-84 312.5,-84 312.5,-78 318.5,-72 324.5,-72 324.5,-72 421.5,-72 421.5,-72 427.5,-72 433.5,-78 433.5,-84 433.5,-84 433.5,-96 433.5,-96 433.5,-102 427.5,-108 421.5,-108"/>
<text text-anchor="middle" x="373" y="-87.5" font-family="sans" font-size="10.00">qiime2_phyloseq_object</text>
</g>
<!-- 4&#45;&gt;0 -->
<g id="edge1" class="edge">
<title>4&#45;&gt;0</title>
<path fill="none" stroke="grey" stroke-width="2" d="M401.38,-71.88C416.88,-62.52 436.25,-50.83 452.83,-40.83"/>
<polygon fill="grey" stroke="grey" stroke-width="2" points="454.96,-43.63 461.71,-35.47 451.34,-37.64 454.96,-43.63"/>
</g>
<!-- 5 -->
<g id="node6" class="node">
<title>5</title>
<path fill="none" stroke="#d8a456" stroke-width="2" d="M358.5,-252C358.5,-252 281.5,-252 281.5,-252 275.5,-252 269.5,-246 269.5,-240 269.5,-240 269.5,-228 269.5,-228 269.5,-222 275.5,-216 281.5,-216 281.5,-216 358.5,-216 358.5,-216 364.5,-216 370.5,-222 370.5,-228 370.5,-228 370.5,-240 370.5,-240 370.5,-246 364.5,-252 358.5,-252"/>
<text text-anchor="middle" x="320" y="-231.5" font-family="sans" font-size="10.00">import_qiime2_data</text>
</g>
<!-- 5&#45;&gt;4 -->
<g id="edge11" class="edge">
<title>5&#45;&gt;4</title>
<path fill="none" stroke="grey" stroke-width="2" d="M326.39,-215.87C335.51,-191.46 352.31,-146.43 363.06,-117.64"/>
<polygon fill="grey" stroke="grey" stroke-width="2" points="366.37,-118.78 366.58,-108.19 359.81,-116.33 366.37,-118.78"/>
</g>
<!-- 8 -->
<g id="node9" class="node">
<title>8</title>
<path fill="none" stroke="#d8c356" stroke-width="2" d="M312,-180C312,-180 238,-180 238,-180 232,-180 226,-174 226,-168 226,-168 226,-156 226,-156 226,-150 232,-144 238,-144 238,-144 312,-144 312,-144 318,-144 324,-150 324,-156 324,-156 324,-168 324,-168 324,-174 318,-180 312,-180"/>
<text text-anchor="middle" x="275" y="-159.5" font-family="sans" font-size="10.00">convert_qiime2csv</text>
</g>
<!-- 5&#45;&gt;8 -->
<g id="edge13" class="edge">
<title>5&#45;&gt;8</title>
<path fill="none" stroke="grey" stroke-width="2" d="M308.88,-215.7C303.64,-207.56 297.3,-197.69 291.52,-188.7"/>
<polygon fill="grey" stroke="grey" stroke-width="2" points="294.35,-186.62 286,-180.1 288.46,-190.41 294.35,-186.62"/>
</g>
<!-- 6 -->
<g id="node7" class="node">
<title>6</title>
<path fill="none" stroke="#56d8a2" stroke-width="2" d="M637.5,-180C637.5,-180 530.5,-180 530.5,-180 524.5,-180 518.5,-174 518.5,-168 518.5,-168 518.5,-156 518.5,-156 518.5,-150 524.5,-144 530.5,-144 530.5,-144 637.5,-144 637.5,-144 643.5,-144 649.5,-150 649.5,-156 649.5,-156 649.5,-168 649.5,-168 649.5,-174 643.5,-180 637.5,-180"/>
<text text-anchor="middle" x="584" y="-159.5" font-family="sans" font-size="10.00">import_demo_qiime2_data</text>
</g>
<!-- 6&#45;&gt;4 -->
<g id="edge10" class="edge">
<title>6&#45;&gt;4</title>
<path fill="none" stroke="grey" stroke-width="2" d="M532.65,-143.97C503.04,-134.14 465.63,-121.73 434.46,-111.39"/>
<polygon fill="grey" stroke="grey" stroke-width="2" points="435.17,-107.94 424.58,-108.11 432.97,-114.58 435.17,-107.94"/>
</g>
<!-- 9 -->
<g id="node10" class="node">
<title>9</title>
<path fill="none" stroke="#c6d856" stroke-width="2" d="M611.5,-108C611.5,-108 556.5,-108 556.5,-108 550.5,-108 544.5,-102 544.5,-96 544.5,-96 544.5,-84 544.5,-84 544.5,-78 550.5,-72 556.5,-72 556.5,-72 611.5,-72 611.5,-72 617.5,-72 623.5,-78 623.5,-84 623.5,-84 623.5,-96 623.5,-96 623.5,-102 617.5,-108 611.5,-108"/>
<text text-anchor="middle" x="584" y="-87.5" font-family="sans" font-size="10.00">line_point_plot</text>
</g>
<!-- 6&#45;&gt;9 -->
<g id="edge14" class="edge">
<title>6&#45;&gt;9</title>
<path fill="none" stroke="grey" stroke-width="2" d="M584,-143.7C584,-135.98 584,-126.71 584,-118.11"/>
<polygon fill="grey" stroke="grey" stroke-width="2" points="587.5,-118.1 584,-108.1 580.5,-118.1 587.5,-118.1"/>
</g>
<!-- 10 -->
<g id="node11" class="node">
<title>10</title>
<path fill="none" stroke="#d87d56" stroke-width="2" d="M686,-108C686,-108 654,-108 654,-108 648,-108 642,-102 642,-96 642,-96 642,-84 642,-84 642,-78 648,-72 654,-72 654,-72 686,-72 686,-72 692,-72 698,-78 698,-84 698,-84 698,-96 698,-96 698,-102 692,-108 686,-108"/>
<text text-anchor="middle" x="670" y="-87.5" font-family="sans" font-size="10.00">jitter_plot</text>
</g>
<!-- 6&#45;&gt;10 -->
<g id="edge15" class="edge">
<title>6&#45;&gt;10</title>
<path fill="none" stroke="grey" stroke-width="2" d="M605.26,-143.7C616.09,-134.88 629.42,-124.03 641.16,-114.47"/>
<polygon fill="grey" stroke="grey" stroke-width="2" points="643.44,-117.13 648.99,-108.1 639.02,-111.7 643.44,-117.13"/>
</g>
<!-- 11 -->
<g id="node12" class="node">
<title>11</title>
<path fill="none" stroke="#56a2d8" stroke-width="2" d="M789.5,-108C789.5,-108 728.5,-108 728.5,-108 722.5,-108 716.5,-102 716.5,-96 716.5,-96 716.5,-84 716.5,-84 716.5,-78 722.5,-72 728.5,-72 728.5,-72 789.5,-72 789.5,-72 795.5,-72 801.5,-78 801.5,-84 801.5,-84 801.5,-96 801.5,-96 801.5,-102 795.5,-108 789.5,-108"/>
<text text-anchor="middle" x="759" y="-87.5" font-family="sans" font-size="10.00">pcoa_ordination</text>
</g>
<!-- 6&#45;&gt;11 -->
<g id="edge16" class="edge">
<title>6&#45;&gt;11</title>
<path fill="none" stroke="grey" stroke-width="2" d="M626.81,-143.88C650.95,-134.22 681.28,-122.09 706.81,-111.88"/>
<polygon fill="grey" stroke="grey" stroke-width="2" points="708.34,-115.03 716.33,-108.07 705.74,-108.53 708.34,-115.03"/>
</g>
<!-- 12 -->
<g id="node13" class="node">
<title>12</title>
<path fill="none" stroke="#56d8c9" stroke-width="2" d="M514.5,-108C514.5,-108 463.5,-108 463.5,-108 457.5,-108 451.5,-102 451.5,-96 451.5,-96 451.5,-84 451.5,-84 451.5,-78 457.5,-72 463.5,-72 463.5,-72 514.5,-72 514.5,-72 520.5,-72 526.5,-78 526.5,-84 526.5,-84 526.5,-96 526.5,-96 526.5,-102 520.5,-108 514.5,-108"/>
<text text-anchor="middle" x="489" y="-87.5" font-family="sans" font-size="10.00">heatmap_plot</text>
</g>
<!-- 6&#45;&gt;12 -->
<g id="edge17" class="edge">
<title>6&#45;&gt;12</title>
<path fill="none" stroke="grey" stroke-width="2" d="M560.52,-143.7C548.44,-134.8 533.55,-123.82 520.48,-114.2"/>
<polygon fill="grey" stroke="grey" stroke-width="2" points="522.34,-111.22 512.21,-108.1 518.19,-116.85 522.34,-111.22"/>
</g>
<!-- 7 -->
<g id="node8" class="node">
<title>7</title>
<path fill="none" stroke="#56c9d8" stroke-width="2" d="M282.5,-108C282.5,-108 229.5,-108 229.5,-108 223.5,-108 217.5,-102 217.5,-96 217.5,-96 217.5,-84 217.5,-84 217.5,-78 223.5,-72 229.5,-72 229.5,-72 282.5,-72 282.5,-72 288.5,-72 294.5,-78 294.5,-84 294.5,-84 294.5,-96 294.5,-96 294.5,-102 288.5,-108 282.5,-108"/>
<text text-anchor="middle" x="256" y="-87.5" font-family="sans" font-size="10.00">venn_diagram</text>
</g>
<!-- 7&#45;&gt;0 -->
<g id="edge5" class="edge">
<title>7&#45;&gt;0</title>
<path fill="none" stroke="grey" stroke-width="2" d="M294.66,-74.78C297.47,-73.82 300.28,-72.88 303,-72 354.11,-55.5 413.97,-38.92 451.69,-28.81"/>
<polygon fill="grey" stroke="grey" stroke-width="2" points="452.96,-32.1 461.71,-26.14 451.15,-25.33 452.96,-32.1"/>
</g>
<!-- 8&#45;&gt;7 -->
<g id="edge12" class="edge">
<title>8&#45;&gt;7</title>
<path fill="none" stroke="grey" stroke-width="2" d="M270.3,-143.7C268.19,-135.9 265.64,-126.51 263.28,-117.83"/>
<polygon fill="grey" stroke="grey" stroke-width="2" points="266.64,-116.84 260.64,-108.1 259.88,-118.67 266.64,-116.84"/>
</g>
<!-- 9&#45;&gt;0 -->
<g id="edge3" class="edge">
<title>9&#45;&gt;0</title>
<path fill="none" stroke="grey" stroke-width="2" d="M560.52,-71.7C548.44,-62.8 533.55,-51.82 520.48,-42.2"/>
<polygon fill="grey" stroke="grey" stroke-width="2" points="522.34,-39.22 512.21,-36.1 518.19,-44.85 522.34,-39.22"/>
</g>
<!-- 10&#45;&gt;0 -->
<g id="edge2" class="edge">
<title>10&#45;&gt;0</title>
<path fill="none" stroke="grey" stroke-width="2" d="M641.87,-76.17C638.55,-74.73 635.21,-73.31 632,-72 596.26,-57.4 554.84,-42.24 525.81,-31.89"/>
<polygon fill="grey" stroke="grey" stroke-width="2" points="526.68,-28.49 516.09,-28.44 524.34,-35.08 526.68,-28.49"/>
</g>
<!-- 11&#45;&gt;0 -->
<g id="edge6" class="edge">
<title>11&#45;&gt;0</title>
<path fill="none" stroke="grey" stroke-width="2" d="M716.23,-74.73C713.12,-73.78 710.01,-72.86 707,-72 643.88,-54.04 569.41,-36.76 525.88,-27.05"/>
<polygon fill="grey" stroke="grey" stroke-width="2" points="526.55,-23.61 516.02,-24.86 525.03,-30.45 526.55,-23.61"/>
</g>
<!-- 12&#45;&gt;0 -->
<g id="edge4" class="edge">
<title>12&#45;&gt;0</title>
<path fill="none" stroke="grey" stroke-width="2" d="M489,-71.7C489,-63.98 489,-54.71 489,-46.11"/>
<polygon fill="grey" stroke="grey" stroke-width="2" points="492.5,-46.1 489,-36.1 485.5,-46.1 492.5,-46.1"/>
</g>
</g>
</svg>
