<?xml version="1.0" encoding="UTF-8" standalone="no"?>
<!DOCTYPE svg PUBLIC "-//W3C//DTD SVG 1.1//EN"
 "http://www.w3.org/Graphics/SVG/1.1/DTD/svg11.dtd">
<!-- Generated by graphviz version 6.0.1 (0)
 -->
<!-- Title: snakemake_dag Pages: 1 -->
<svg width="694pt" height="260pt"
 viewBox="0.00 0.00 694.00 260.00" xmlns="http://www.w3.org/2000/svg" xmlns:xlink="http://www.w3.org/1999/xlink">
<g id="graph0" class="graph" transform="scale(1 1) rotate(0) translate(4 256)">
<title>snakemake_dag</title>
<polygon fill="white" stroke="none" points="-4,4 -4,-256 690,-256 690,4 -4,4"/>
<!-- 0 -->
<g id="node1" class="node">
<title>0</title>
<path fill="none" stroke="#8fd856" stroke-width="2" d="M368,-36C368,-36 338,-36 338,-36 332,-36 326,-30 326,-24 326,-24 326,-12 326,-12 326,-6 332,0 338,0 338,0 368,0 368,0 374,0 380,-6 380,-12 380,-12 380,-24 380,-24 380,-30 374,-36 368,-36"/>
<text text-anchor="middle" x="353" y="-15.5" font-family="sans" font-size="10.00">all</text>
</g>
<!-- 1 -->
<g id="node2" class="node">
<title>1</title>
<path fill="none" stroke="#56d8b9" stroke-width="2" d="M145,-108C145,-108 47,-108 47,-108 41,-108 35,-102 35,-96 35,-96 35,-84 35,-84 35,-78 41,-72 47,-72 47,-72 145,-72 145,-72 151,-72 157,-78 157,-84 157,-84 157,-96 157,-96 157,-102 151,-108 145,-108"/>
<text text-anchor="middle" x="96" y="-87.5" font-family="sans" font-size="10.00">deploy_to_github_pages</text>
</g>
<!-- 1&#45;&gt;0 -->
<g id="edge5" class="edge">
<title>1&#45;&gt;0</title>
<path fill="none" stroke="grey" stroke-width="2" d="M157.23,-72.32C206.75,-58.84 274.82,-40.29 316.26,-29.01"/>
<polygon fill="grey" stroke="grey" stroke-width="2" points="317.22,-32.37 325.95,-26.37 315.38,-25.62 317.22,-32.37"/>
</g>
<!-- 2 -->
<g id="node3" class="node">
<title>2</title>
<path fill="none" stroke="#56d892" stroke-width="2" d="M82,-180C82,-180 12,-180 12,-180 6,-180 0,-174 0,-168 0,-168 0,-156 0,-156 0,-150 6,-144 12,-144 12,-144 82,-144 82,-144 88,-144 94,-150 94,-156 94,-156 94,-168 94,-168 94,-174 88,-180 82,-180"/>
<text text-anchor="middle" x="47" y="-159.5" font-family="sans" font-size="10.00">get_dot_rulegraph</text>
</g>
<!-- 2&#45;&gt;1 -->
<g id="edge9" class="edge">
<title>2&#45;&gt;1</title>
<path fill="none" stroke="grey" stroke-width="2" d="M59.11,-143.7C64.87,-135.47 71.86,-125.48 78.21,-116.42"/>
<polygon fill="grey" stroke="grey" stroke-width="2" points="81.16,-118.3 84.03,-108.1 75.42,-114.29 81.16,-118.3"/>
</g>
<!-- 3 -->
<g id="node4" class="node">
<title>3</title>
<path fill="none" stroke="#d8cb56" stroke-width="2" d="M168,-180C168,-180 124,-180 124,-180 118,-180 112,-174 112,-168 112,-168 112,-156 112,-156 112,-150 118,-144 124,-144 124,-144 168,-144 168,-144 174,-144 180,-150 180,-156 180,-156 180,-168 180,-168 180,-174 174,-180 168,-180"/>
<text text-anchor="middle" x="146" y="-159.5" font-family="sans" font-size="10.00">project_tree</text>
</g>
<!-- 3&#45;&gt;1 -->
<g id="edge8" class="edge">
<title>3&#45;&gt;1</title>
<path fill="none" stroke="grey" stroke-width="2" d="M133.64,-143.7C127.77,-135.47 120.63,-125.48 114.16,-116.42"/>
<polygon fill="grey" stroke="grey" stroke-width="2" points="116.88,-114.21 108.22,-108.1 111.18,-118.28 116.88,-114.21"/>
</g>
<!-- 4 -->
<g id="node5" class="node">
<title>4</title>
<path fill="none" stroke="#56d86b" stroke-width="2" d="M217,-108C217,-108 187,-108 187,-108 181,-108 175,-102 175,-96 175,-96 175,-84 175,-84 175,-78 181,-72 187,-72 187,-72 217,-72 217,-72 223,-72 229,-78 229,-84 229,-84 229,-96 229,-96 229,-102 223,-108 217,-108"/>
<text text-anchor="middle" x="202" y="-87.5" font-family="sans" font-size="10.00">clusters</text>
</g>
<!-- 4&#45;&gt;0 -->
<g id="edge4" class="edge">
<title>4&#45;&gt;0</title>
<path fill="none" stroke="grey" stroke-width="2" d="M229.34,-76.32C253.82,-64.98 289.9,-48.25 316.77,-35.8"/>
<polygon fill="grey" stroke="grey" stroke-width="2" points="318.26,-38.96 325.86,-31.58 315.31,-32.61 318.26,-38.96"/>
</g>
<!-- 5 -->
<g id="node6" class="node">
<title>5</title>
<path fill="none" stroke="#56d0d8" stroke-width="2" d="M443.5,-180C443.5,-180 338.5,-180 338.5,-180 332.5,-180 326.5,-174 326.5,-168 326.5,-168 326.5,-156 326.5,-156 326.5,-150 332.5,-144 338.5,-144 338.5,-144 443.5,-144 443.5,-144 449.5,-144 455.5,-150 455.5,-156 455.5,-156 455.5,-168 455.5,-168 455.5,-174 449.5,-180 443.5,-180"/>
<text text-anchor="middle" x="391" y="-159.5" font-family="sans" font-size="10.00">visualize_processed_data</text>
</g>
<!-- 5&#45;&gt;4 -->
<g id="edge10" class="edge">
<title>5&#45;&gt;4</title>
<path fill="none" stroke="grey" stroke-width="2" d="M338.13,-143.94C308.7,-134.1 271.53,-121.11 239,-108 238.9,-107.96 238.8,-107.92 238.7,-107.88"/>
<polygon fill="grey" stroke="grey" stroke-width="2" points="239.93,-104.6 229.35,-103.92 237.2,-111.04 239.93,-104.6"/>
</g>
<!-- 7 -->
<g id="node8" class="node">
<title>7</title>
<path fill="none" stroke="#d8a456" stroke-width="2" d="M294.5,-108C294.5,-108 259.5,-108 259.5,-108 253.5,-108 247.5,-102 247.5,-96 247.5,-96 247.5,-84 247.5,-84 247.5,-78 253.5,-72 259.5,-72 259.5,-72 294.5,-72 294.5,-72 300.5,-72 306.5,-78 306.5,-84 306.5,-84 306.5,-96 306.5,-96 306.5,-102 300.5,-108 294.5,-108"/>
<text text-anchor="middle" x="277" y="-87.5" font-family="sans" font-size="10.00">heatmaps</text>
</g>
<!-- 5&#45;&gt;7 -->
<g id="edge12" class="edge">
<title>5&#45;&gt;7</title>
<path fill="none" stroke="grey" stroke-width="2" d="M363.11,-143.88C348.21,-134.72 329.67,-123.34 313.62,-113.48"/>
<polygon fill="grey" stroke="grey" stroke-width="2" points="315.35,-110.44 304.99,-108.19 311.69,-116.41 315.35,-110.44"/>
</g>
<!-- 8 -->
<g id="node9" class="node">
<title>8</title>
<path fill="none" stroke="#d87d56" stroke-width="2" d="M369,-108C369,-108 337,-108 337,-108 331,-108 325,-102 325,-96 325,-96 325,-84 325,-84 325,-78 331,-72 337,-72 337,-72 369,-72 369,-72 375,-72 381,-78 381,-84 381,-84 381,-96 381,-96 381,-102 375,-108 369,-108"/>
<text text-anchor="middle" x="353" y="-87.5" font-family="sans" font-size="10.00">bar_plots</text>
</g>
<!-- 5&#45;&gt;8 -->
<g id="edge13" class="edge">
<title>5&#45;&gt;8</title>
<path fill="none" stroke="grey" stroke-width="2" d="M381.61,-143.7C377.24,-135.64 371.94,-125.89 367.1,-116.98"/>
<polygon fill="grey" stroke="grey" stroke-width="2" points="370.13,-115.22 362.29,-108.1 363.98,-118.56 370.13,-115.22"/>
</g>
<!-- 9 -->
<g id="node10" class="node">
<title>9</title>
<path fill="none" stroke="#68d856" stroke-width="2" d="M446.5,-108C446.5,-108 411.5,-108 411.5,-108 405.5,-108 399.5,-102 399.5,-96 399.5,-96 399.5,-84 399.5,-84 399.5,-78 405.5,-72 411.5,-72 411.5,-72 446.5,-72 446.5,-72 452.5,-72 458.5,-78 458.5,-84 458.5,-84 458.5,-96 458.5,-96 458.5,-102 452.5,-108 446.5,-108"/>
<text text-anchor="middle" x="429" y="-87.5" font-family="sans" font-size="10.00">box_plots</text>
</g>
<!-- 5&#45;&gt;9 -->
<g id="edge14" class="edge">
<title>5&#45;&gt;9</title>
<path fill="none" stroke="grey" stroke-width="2" d="M400.39,-143.7C404.76,-135.64 410.06,-125.89 414.9,-116.98"/>
<polygon fill="grey" stroke="grey" stroke-width="2" points="418.02,-118.56 419.71,-108.1 411.87,-115.22 418.02,-118.56"/>
</g>
<!-- 10 -->
<g id="node11" class="node">
<title>10</title>
<path fill="none" stroke="#567bd8" stroke-width="2" d="M557.5,-108C557.5,-108 488.5,-108 488.5,-108 482.5,-108 476.5,-102 476.5,-96 476.5,-96 476.5,-84 476.5,-84 476.5,-78 482.5,-72 488.5,-72 488.5,-72 557.5,-72 557.5,-72 563.5,-72 569.5,-78 569.5,-84 569.5,-84 569.5,-96 569.5,-96 569.5,-102 563.5,-108 557.5,-108"/>
<text text-anchor="middle" x="523" y="-87.5" font-family="sans" font-size="10.00">ordination_graphs</text>
</g>
<!-- 5&#45;&gt;10 -->
<g id="edge15" class="edge">
<title>5&#45;&gt;10</title>
<path fill="none" stroke="grey" stroke-width="2" d="M423.29,-143.88C440.87,-134.55 462.81,-122.92 481.63,-112.94"/>
<polygon fill="grey" stroke="grey" stroke-width="2" points="483.39,-115.97 490.59,-108.19 480.11,-109.78 483.39,-115.97"/>
</g>
<!-- 11 -->
<g id="node12" class="node">
<title>11</title>
<path fill="none" stroke="#56a9d8" stroke-width="2" d="M674,-108C674,-108 600,-108 600,-108 594,-108 588,-102 588,-96 588,-96 588,-84 588,-84 588,-78 594,-72 600,-72 600,-72 674,-72 674,-72 680,-72 686,-78 686,-84 686,-84 686,-96 686,-96 686,-102 680,-108 674,-108"/>
<text text-anchor="middle" x="637" y="-87.5" font-family="sans" font-size="10.00">phylogenetic_trees</text>
</g>
<!-- 5&#45;&gt;11 -->
<g id="edge16" class="edge">
<title>5&#45;&gt;11</title>
<path fill="none" stroke="grey" stroke-width="2" d="M452.01,-143.97C486.44,-134.32 530.51,-121.91 578.08,-108.25"/>
<polygon fill="grey" stroke="grey" stroke-width="2" points="579.32,-111.54 587.96,-105.41 577.38,-104.81 579.32,-111.54"/>
</g>
<!-- 6 -->
<g id="node7" class="node">
<title>6</title>
<path fill="none" stroke="#d85656" stroke-width="2" d="M438,-252C438,-252 344,-252 344,-252 338,-252 332,-246 332,-240 332,-240 332,-228 332,-228 332,-222 338,-216 344,-216 344,-216 438,-216 438,-216 444,-216 450,-222 450,-228 450,-228 450,-240 450,-240 450,-246 444,-252 438,-252"/>
<text text-anchor="middle" x="391" y="-231.5" font-family="sans" font-size="10.00">import_processed_data</text>
</g>
<!-- 6&#45;&gt;5 -->
<g id="edge11" class="edge">
<title>6&#45;&gt;5</title>
<path fill="none" stroke="grey" stroke-width="2" d="M391,-215.7C391,-207.98 391,-198.71 391,-190.11"/>
<polygon fill="grey" stroke="grey" stroke-width="2" points="394.5,-190.1 391,-180.1 387.5,-190.1 394.5,-190.1"/>
</g>
<!-- 7&#45;&gt;0 -->
<g id="edge2" class="edge">
<title>7&#45;&gt;0</title>
<path fill="none" stroke="grey" stroke-width="2" d="M295.79,-71.7C305.17,-63.05 316.68,-52.45 326.91,-43.03"/>
<polygon fill="grey" stroke="grey" stroke-width="2" points="329.45,-45.45 334.43,-36.1 324.7,-40.3 329.45,-45.45"/>
</g>
<!-- 8&#45;&gt;0 -->
<g id="edge1" class="edge">
<title>8&#45;&gt;0</title>
<path fill="none" stroke="grey" stroke-width="2" d="M353,-71.7C353,-63.98 353,-54.71 353,-46.11"/>
<polygon fill="grey" stroke="grey" stroke-width="2" points="356.5,-46.1 353,-36.1 349.5,-46.1 356.5,-46.1"/>
</g>
<!-- 9&#45;&gt;0 -->
<g id="edge3" class="edge">
<title>9&#45;&gt;0</title>
<path fill="none" stroke="grey" stroke-width="2" d="M410.21,-71.7C400.83,-63.05 389.32,-52.45 379.09,-43.03"/>
<polygon fill="grey" stroke="grey" stroke-width="2" points="381.3,-40.3 371.57,-36.1 376.55,-45.45 381.3,-40.3"/>
</g>
<!-- 10&#45;&gt;0 -->
<g id="edge7" class="edge">
<title>10&#45;&gt;0</title>
<path fill="none" stroke="grey" stroke-width="2" d="M481.41,-71.88C453.31,-60.3 416.55,-45.17 389.57,-34.06"/>
<polygon fill="grey" stroke="grey" stroke-width="2" points="390.68,-30.73 380.11,-30.16 388.02,-37.2 390.68,-30.73"/>
</g>
<!-- 11&#45;&gt;0 -->
<g id="edge6" class="edge">
<title>11&#45;&gt;0</title>
<path fill="none" stroke="grey" stroke-width="2" d="M587.69,-74.35C584.75,-73.54 581.84,-72.75 579,-72 512.84,-54.56 435.03,-36.94 390.13,-27.05"/>
<polygon fill="grey" stroke="grey" stroke-width="2" points="390.77,-23.61 380.25,-24.89 389.27,-30.45 390.77,-23.61"/>
</g>
</g>
</svg>
